<?xml version="1.0" encoding="UTF-8" standalone="no"?>
<svg
   xmlns:dc="http://purl.org/dc/elements/1.1/"
   xmlns:cc="http://creativecommons.org/ns#"
   xmlns:rdf="http://www.w3.org/1999/02/22-rdf-syntax-ns#"
   xmlns:svg="http://www.w3.org/2000/svg"
   xmlns="http://www.w3.org/2000/svg"
   xmlns:sodipodi="http://sodipodi.sourceforge.net/DTD/sodipodi-0.dtd"
   xmlns:inkscape="http://www.inkscape.org/namespaces/inkscape"
   inkscape:export-ydpi="11.23245"
   inkscape:export-xdpi="11.23245"
   inkscape:export-filename="C:\Users\tad\tn\my_xoops\htdocs\themes\school2019\images\mask\mask2.png"
   width="1280"
   height="300"
   viewBox="0 0 338.66666 79.375002"
   version="1.1"
   id="svg8"
   inkscape:version="1.0 (4035a4fb49, 2020-05-01)"
   sodipodi:docname="mask2.svg">
  <defs
     id="defs2">
    <inkscape:path-effect
       only_selected="false"
       apply_with_weight="true"
       apply_no_weight="true"
       helper_size="0"
       steps="2"
       weight="33.333333"
       lpeversion="1"
       is_visible="true"
       id="path-effect867"
       effect="bspline" />
    <inkscape:path-effect
       only_selected="false"
       apply_with_weight="true"
       apply_no_weight="true"
       helper_size="0"
       steps="2"
       weight="33.333333"
       lpeversion="1"
       is_visible="true"
       id="path-effect853"
       effect="bspline" />
    <inkscape:path-effect
       only_selected="false"
       apply_with_weight="true"
       apply_no_weight="true"
       helper_size="0"
       steps="2"
       weight="33.333333"
       lpeversion="1"
       is_visible="true"
       id="path-effect849"
       effect="bspline" />
    <inkscape:path-effect
       effect="bspline"
       id="path-effect845"
       is_visible="true"
       lpeversion="1"
       weight="33.333333"
       steps="2"
       helper_size="0"
       apply_no_weight="true"
       apply_with_weight="true"
       only_selected="false" />
  </defs>
  <sodipodi:namedview
     inkscape:snap-global="false"
     id="base"
     pagecolor="#ffffff"
     bordercolor="#666666"
     borderopacity="1.0"
     inkscape:pageopacity="0.0"
     inkscape:pageshadow="2"
     inkscape:zoom="0.7"
     inkscape:cx="766.12634"
     inkscape:cy="173.83158"
     inkscape:document-units="px"
     inkscape:current-layer="layer1"
     inkscape:document-rotation="0"
     showgrid="false"
     units="px"
     inkscape:window-width="1920"
     inkscape:window-height="1017"
     inkscape:window-x="-8"
     inkscape:window-y="-8"
     inkscape:window-maximized="1" />
  <metadata
     id="metadata5">
    <rdf:RDF>
      <cc:Work
         rdf:about="">
        <dc:format>image/svg+xml</dc:format>
        <dc:type
           rdf:resource="http://purl.org/dc/dcmitype/StillImage" />
        <dc:title></dc:title>
      </cc:Work>
    </rdf:RDF>
  </metadata>
  <g
     inkscape:label="Layer 1"
     inkscape:groupmode="layer"
     id="layer1">
    <path
       transform="scale(0.26458333)"
       d="M -1 -1 L -1 301 L 1281 301 L 1281 -1 L -1 -1 z M 237.375 9.7089844 C 237.7133 9.7005325 238.03977 9.7361102 238.32617 9.8125 C 242.02529 10.853053 245.74005 9.6031586 249.39258 10.080078 C 252.39121 9.6114165 255.26866 10.490239 258.2207 10.5625 C 258.47779 10.570739 258.74569 10.579187 258.99414 10.595703 C 261.2319 10.329371 263.42979 10.490948 265.53125 11.128906 L 265.63477 11.128906 C 265.89011 11.040129 266.1385 10.958364 266.38867 10.861328 C 268.0588 10.820037 269.71005 10.773713 271.375 10.732422 C 272.5741 10.249308 273.97068 10.76526 275.18359 10.337891 C 275.45273 10.321374 275.71053 10.305133 275.95898 10.296875 C 281.50593 9.7662754 287.09863 9.5313285 292.63867 9.8554688 C 296.16352 10.055735 299.83615 9.6765249 303.24023 10.748047 C 304.3519 11.336084 304.62201 12.160267 304.61328 13.052734 C 308.17206 12.902531 311.77438 13.018664 315.42969 13.421875 C 316.45255 13.361988 317.42198 13.33076 318.41797 13.300781 C 329.90153 13.038709 341.09333 9.8809863 352.8125 11.550781 C 367.04849 9.8285718 381.39246 14.355915 395.83789 10.582031 C 396.95164 10.305124 398.21616 10.175933 399.53125 10.207031 L 399.5332 10.207031 C 403.48009 10.30085 407.86922 11.837549 409.91406 15.150391 C 413.71551 14.5888 417.49034 14.03457 421.26562 13.480469 C 423.20528 13.360658 425.14705 13.278014 427.06055 13.158203 C 432.27818 16.056004 438.96273 11.902977 444.17969 14.800781 C 445.85757 11.962879 449.73757 13.009801 452.7793 12.605469 C 460.53923 10.201868 468.16893 10.380858 475.7168 13.128906 C 476.77053 13.683009 477.81624 14.213477 478.86328 14.767578 C 483.76945 16.025551 488.61571 10.470853 493.54883 14.708984 C 495.17304 15.030962 496.8504 15.353803 498.47461 15.675781 C 500.8841 15.937854 501.41447 17.104655 501.48828 18.482422 C 511.89797 12.252519 522.30754 13.128597 532.74414 18.482422 C 537.77787 15.614569 539.71744 19.188295 542.65039 20.738281 C 549.0734 15.968514 557.93436 21.380901 564.98828 18.273438 C 567.40442 17.165237 567.50584 19.478401 568.13672 20.466797 C 569.21056 22.166543 567.50614 23.071969 565.56641 22.929688 C 555.41845 22.165922 544.85358 24.770932 535.10156 21.199219 L 535.09961 21.199219 C 534.42175 21.259177 533.76658 21.261729 533.08203 21.171875 C 529.46446 24.241826 525.79093 20.353103 522.14648 21.199219 C 521.07265 21.813224 519.97228 22.429608 518.89844 23.103516 C 523.61669 25.387318 523.61775 25.385631 513 29.099609 C 519.76528 32.783634 528.85965 28.426646 535.625 32.140625 C 543.36347 32.492559 551.09337 32.845325 558.77148 33.197266 C 572.09405 33.661513 585.35716 34.184517 598.67969 34.65625 C 603.42477 36.468328 608.22549 36.730673 613.125 34.978516 C 621.07153 35.120785 629.19642 33.600602 636.84766 36.236328 C 642.33103 34.776193 647.75394 33.599241 652.92188 36.699219 C 658.66028 35.883045 664.40719 35.302218 670.04492 36.912109 C 675.07865 36.679986 680.1128 35.712632 684.77734 37.958984 C 685.48207 37.906562 686.21761 38.016913 686.8418 38.226562 C 690.67412 36.908689 694.13188 34.826359 698.98438 36.001953 C 699.90381 35.882119 700.8241 36.03444 701.60938 36.378906 C 713.09293 37.696791 725.25474 32.049096 736.21484 38.046875 C 737.83898 37.61258 739.57106 37.203504 741.19531 36.761719 C 743.03432 36.91146 745.20829 36.678958 746.49023 37.292969 C 748.45672 38.169048 752.86007 37.98958 751.20898 40.767578 C 750.94744 41.209326 747.01341 40.623717 744.78516 40.503906 C 739.69776 42.72778 734.5089 43.694371 729.34766 40.564453 C 722.52867 39.164229 716.9445 43.343532 710.25977 42.4375 C 706.71601 42.295239 703.1 42.878202 699.58984 43.3125 C 702.05296 43.492217 704.54317 43.342194 707.0332 43.574219 C 721.48324 43.139921 735.69147 44.187693 749.98047 45.363281 C 754.69879 45.333045 759.49562 45.245377 764.26758 45.185547 C 777.05996 45.769601 789.96061 44.720129 802.54492 46.824219 C 818.74674 47.348371 835.00426 46.562553 850.99805 48.816406 C 856.34048 49.048545 861.71432 49.308245 867.11719 49.570312 C 873.5939 49.428052 880.14437 49.017719 886.51367 50.597656 C 893.46691 50.155901 900.41422 49.720976 907.48828 50.042969 C 907.80349 45.393008 916.7694 46.241688 918.29297 42.265625 C 918.68222 41.763942 918.81803 41.207105 918.68359 40.623047 C 906.49534 37.021383 894.09157 41.558766 881.84961 40.121094 C 877.78907 40.39065 875.0365 36.206746 870.36523 38.632812 C 862.23747 40.122899 854.19033 41.26844 845.53906 39.486328 C 850.59962 30.590737 860.69485 32.229399 870.26562 33.015625 C 874.50739 33.105476 880.19814 36.559277 882.03711 30.763672 C 880.88273 30.127207 879.75743 29.50561 878.57617 28.869141 C 872.01892 28.749299 865.46741 28.598019 858.91016 28.425781 C 854.79591 29.099693 851.04289 28.368336 847.50586 26.908203 C 838.25055 30.270453 829.02382 27.610791 819.71484 26.876953 C 828.58086 23.395097 838.4601 25.911949 847.58789 24.511719 C 844.67508 23.396026 841.74144 22.28496 838.85547 21.199219 C 835.5265 20.29319 831.12439 21.81451 827.71484 18.572266 C 836.7554 15.494746 845.19933 18.010963 853.53516 18.894531 C 857.86419 16.932701 862.71576 16.812123 867.61523 17.074219 C 872.07175 18.684118 877.65486 16.461949 881.84961 18.917969 C 890.50087 18.745743 899.41418 15.202142 907.85742 20.765625 L 881.72266 20.765625 C 877.00441 20.907902 872.28042 21.029593 867.48828 21.171875 C 867.48828 22.257616 867.43453 23.363481 867.38086 24.449219 C 872.15282 25.17554 876.9507 25.881418 881.72266 26.615234 C 884.86367 23.867187 889.27298 24.856077 893.30664 24.826172 C 900.1525 24.33198 906.93779 23.979679 913.96484 25.177734 C 911.60906 27.933269 907.8582 26.352455 905.05273 27.048828 C 899.67673 32.140574 910.50835 29.856451 910.42773 32.582031 C 916.98495 33.600383 922.61637 38.924049 930.2207 34.333984 L 930.30078 34.333984 C 938.60977 32.402117 947.08131 29.53431 953.68555 36.677734 C 954.26276 37.261744 957.22782 36.820958 959.14062 36.880859 C 959.97953 36.648713 960.89928 36.467405 961.89258 36.4375 C 966.00686 34.685339 962.81203 30.419129 967.58398 28.869141 C 994.24254 28.809292 1021.0148 24.450037 1047.7539 28.837891 C 1062.9624 28.688123 1078.1377 28.51889 1093.373 28.369141 C 1099.8498 20.327182 1108.6287 28.073714 1116.1055 26.845703 C 1125.2802 23.685828 1135.2403 25.911242 1144.7305 24.945312 C 1140.274 23.687353 1140.0395 21.381825 1141.7441 18.746094 C 1143.3684 16.379942 1145.4681 18.394841 1147.3809 18.626953 C 1148.9246 16.964652 1151.3157 16.904556 1153.8594 17.316406 C 1156.477 17.226578 1159.1736 17.075877 1161.8516 16.933594 L 1161.8516 16.904297 C 1163.8986 14.740296 1165.8655 15.060976 1167.832 16.962891 C 1177.6309 12.043364 1183.0065 19.591983 1190.6914 20.767578 C 1197.5037 16.784036 1205.7659 19.156975 1213.3164 18.542969 C 1214.3365 18.101189 1215.3844 17.6078 1216.4648 17.166016 C 1224.9551 17.929776 1233.4254 18.596921 1241.9492 19.300781 C 1244.8284 19.944736 1247.7136 20.587166 1250.5996 21.201172 C 1252.5661 21.201171 1254.5344 21.171875 1256.4941 21.171875 C 1266.1992 21.404002 1278.7829 18.684792 1276.8164 30.560547 C 1280.9306 33.892638 1279.3854 37.203056 1276.7344 40.535156 L 1276.8965 41.267578 L 1276.6816 41.974609 C 1282.8966 45.074589 1274.6671 48.787704 1277.5195 52 C 1277.996 52.703858 1278.3848 53.406815 1278.8613 54.140625 C 1278.8613 62.766641 1280.8763 71.484999 1277.2051 79.96875 L 1277.2051 79.994141 C 1275.8962 83.70812 1280.2252 87.485885 1277.1582 91.259766 C 1276.2386 95.909726 1277.2052 100.96215 1270.8359 104.41406 C 1263.4934 109.09396 1254.9224 112.05069 1244.8281 112.72461 C 1238.6669 115.00091 1232.0617 116.32129 1224.9004 116.11914 C 1222.2828 116.29134 1219.5789 116.46777 1216.9883 116.66992 C 1205.9476 117.98779 1194.8067 117.25547 1183.793 117.51758 C 1183.8735 118.3712 1184.0074 118.77522 1184.1348 120.21289 C 1184.3967 122.99086 1190.1145 122.14375 1193.1816 123.25195 C 1195.014 123.28219 1196.8533 123.34443 1198.6855 123.4043 L 1223.9863 123.4043 C 1224.1137 123.83858 1224.1691 124.21935 1224.3301 124.68359 C 1215.7258 125.38745 1207.1543 126.0904 1198.5566 126.82422 C 1197.7647 127.55053 1196.9805 128.28572 1196.1953 129.01953 C 1197.1953 129.16179 1198.1619 129.31019 1199.209 129.48242 C 1205.632 129.39262 1212.1078 129.30795 1218.6113 129.24805 C 1218.6127 129.2486 1218.6138 129.25157 1218.6152 129.25195 C 1227.3456 128.95896 1235.734 125.24718 1246.5312 128.45898 C 1236.0948 129.36503 1227.3431 130.12752 1218.6113 130.86133 C 1215.5977 130.89156 1213.0553 131.44323 1210.9277 132.52148 C 1213.8138 134.07147 1215.2835 136.03391 1215.7266 138.34766 C 1215.9416 138.37789 1216.1214 138.46019 1216.3027 138.49023 C 1224.6386 137.87623 1233.0284 137.2019 1241.418 136.58789 C 1252.17 133.37561 1262.003 133.90196 1270.916 139.92969 C 1265.8016 142.03377 1263.3919 146.8262 1255.9219 146.42188 C 1250.2842 146.4521 1244.645 146.50308 1238.9805 146.5332 C 1237.0139 147.85108 1235.1302 149.16976 1233.2441 150.51758 C 1233.1644 151.10164 1233.2425 151.74474 1233.4238 152.29883 C 1235.6521 152.17902 1237.8797 152.00588 1240.5039 151.82617 C 1238.665 156.04184 1233.7669 153.81959 1230.3574 154.43359 C 1229.4916 154.52351 1228.6241 154.52351 1227.7852 154.43359 C 1224.8992 157.24154 1220.2368 157.47322 1215.9414 158.20703 C 1215.7804 158.35678 1215.7797 158.49866 1215.6523 158.64844 L 1215.6523 159.11328 C 1215.6523 160.66328 1215.7266 162.18114 1215.7266 163.70117 C 1215.9412 163.88093 1215.7795 164.05338 1216.041 164.20312 C 1218.8732 164.1133 1221.6261 164.08477 1224.4316 164.05469 C 1227.66 161.53877 1231.9826 162.30274 1235.9961 162.12305 L 1236.0039 162.12305 C 1240.0358 159.11412 1245.4887 160.66156 1250.3398 160.10938 C 1255.4474 157.5036 1261.3461 156.59474 1267.5879 156.21289 C 1270.9169 153.69696 1275.0308 154.19849 1279.3867 154.90234 C 1277.6014 157.79268 1273.93 157.97552 1270.3125 158.26758 C 1263.6546 159.5555 1257.0245 160.84261 1250.3398 162.12305 C 1246.4557 162.68444 1242.5264 163.32771 1238.6758 163.94141 C 1234.8771 164.55542 1231.0702 165.22324 1227.2715 165.86719 C 1223.6003 166.6609 1219.8555 167.36481 1216.2109 168.12109 C 1215.6606 168.79501 1215.9496 169.64118 1215.8691 170.46484 C 1215.9496 171.95492 1215.9492 173.44352 1215.9492 174.93359 C 1216.3922 176.40122 1216.392 177.74371 1214.2441 178.67969 C 1214.1636 179.88524 1214.0301 181.08124 1213.9023 182.2793 C 1214.2916 183.03557 1214.0822 183.74014 1214.3438 184.50391 C 1219.0148 184.82585 1223.2593 185.37853 1218.541 191.40625 C 1218.4405 193.24826 1218.2233 195.12217 1218.0957 196.99414 L 1218.0156 196.99414 C 1221.7673 198.42433 1219.8021 201.35003 1221.7148 203.25195 C 1223.6814 207.37029 1219.6684 208.8107 1215.7891 210.30078 C 1215.9458 211.82323 1215.9827 213.28936 1215.0176 214.5957 C 1220.4571 214.08705 1225.9382 213.86374 1231.3691 214.18164 C 1234.894 214.38192 1238.5666 214.00268 1241.9707 215.07422 C 1243.2506 215.7514 1243.44 216.73638 1243.3398 217.78516 C 1244.6337 219.36458 1245.0193 221.07389 1244.8828 222.88867 C 1245.644 225.41366 1245.9783 227.94822 1244.8672 230.46289 C 1244.8793 230.85105 1244.903 231.21973 1244.9219 231.59961 C 1246.7887 232.2374 1248.7569 230.93895 1250.6289 231.74414 C 1254.4712 231.83292 1258.3922 231.74497 1261.0078 234.40625 C 1261.2649 234.59205 1261.514 234.78608 1261.7695 234.98828 C 1262.356 235.42391 1262.3564 235.95428 1262.3027 236.51172 C 1263.3 236.92255 1264.3317 237.31956 1263.8262 238.45508 C 1263.3345 238.97949 1263.8397 239.78537 1262.875 240.17969 L 1262.8984 240.17969 C 1262.9313 240.69586 1262.9853 241.21281 1263.0117 241.7207 C 1264.2246 243.38267 1263.1344 243.53423 1261.9336 243.62305 C 1261.8663 243.83364 1261.9201 244.0277 1261.8203 244.23633 C 1261.8532 244.56666 1261.8855 244.89787 1261.9082 245.23047 C 1262.4602 245.48853 1262.4595 245.85704 1262.3457 246.26172 C 1262.3457 246.67255 1262.3469 247.08327 1262.3242 247.49414 C 1262.345 247.72125 1262.2727 247.95467 1262.4141 248.14062 C 1263.3509 248.34914 1264.3121 248.54288 1265.2559 248.76172 C 1266.2324 248.93921 1267.211 249.12365 1268.1875 249.29297 C 1269.1772 249.46191 1270.1872 249.63996 1271.1855 249.79492 L 1271.1875 249.79492 C 1272.9053 250.14785 1274.6094 250.50252 1276.3203 250.85742 C 1277.2503 250.93793 1278.1954 250.98805 1278.6543 251.78516 C 1277.5346 251.97923 1276.4769 252.11756 1275.6211 251.42383 C 1274.0172 251.31857 1272.5001 251.06742 1271.1875 250.34961 C 1269.9406 250.19752 1268.5383 250.62445 1267.502 249.79492 L 1267.5 249.79492 C 1266.4683 249.74537 1265.3572 249.95541 1264.5273 249.26172 C 1263.8061 249.25454 1263.0972 249.24338 1262.3691 249.2207 C 1262.3004 249.2619 1262.3446 249.30986 1262.2891 249.35938 C 1262.2891 249.77849 1262.2695 250.19765 1262.2695 250.625 L 1262.2695 250.75195 C 1262.3024 250.79353 1262.3026 250.8338 1262.3438 250.875 C 1263.448 251.07732 1264.6468 251.14178 1265.3887 251.91602 C 1265.6043 251.88956 1265.8282 251.88956 1266.0508 251.91602 C 1266.9273 252.0853 1268.1855 251.47046 1268.6582 252.63281 C 1267.9836 252.5833 1267.4107 252.53792 1266.8379 252.50391 C 1266.7913 252.65664 1266.7721 252.83313 1266.791 252.99414 C 1267.2758 253.36578 1267.7621 253.73054 1268.2676 254.09375 C 1269.7238 254.10131 1271.1718 254.11744 1272.6211 254.125 C 1274.5414 254.0135 1275.1619 255.33391 1276.4766 255.91406 C 1274.1853 257.57607 1271.6565 257.72167 1268.8926 256.83594 C 1266.7359 256.66661 1264.5804 256.47987 1262.4375 256.31055 C 1262.3906 256.31924 1262.3442 256.34205 1262.2891 256.34961 C 1262.1752 256.98756 1261.7966 257.52968 1261.0547 257.95703 C 1261.6016 258.25422 1262.2566 258.4065 1263.0312 258.41406 C 1265.2759 258.61638 1267.5261 258.8283 1270.209 259.07812 C 1267.4329 259.96374 1265.2759 258.93988 1263.0312 258.85938 C 1261.3594 258.84275 1259.6941 258.82138 1258.043 258.79492 C 1257.7738 258.84254 1257.5246 258.88257 1257.2676 258.92188 C 1257.4694 259.12419 1257.6713 259.32703 1257.875 259.52734 C 1260.0852 259.72966 1262.2881 259.92292 1264.5 260.11719 C 1264.4584 260.24494 1264.4461 260.35089 1264.4121 260.4707 L 1257.9082 260.4707 C 1257.4372 260.48544 1256.9651 260.50416 1256.4941 260.51172 C 1255.7057 260.81729 1254.2352 260.58365 1254.168 261.34961 C 1254.1347 261.74601 1254.099 261.85829 1254.0801 262.09375 C 1256.9114 262.16594 1259.7751 261.96296 1262.6133 262.32617 C 1263.2793 262.38173 1263.9736 262.43285 1264.6465 262.48047 C 1266.4874 262.42472 1268.1857 262.7864 1269.7695 263.41406 C 1272.3644 263.59986 1274.5675 264.41666 1276.4551 265.70703 C 1278.0914 266.65879 1277.8439 268.05186 1278.0801 269.33398 C 1278.8682 270.37453 1277.7535 271.41543 1278.0898 272.43945 L 1278.0898 272.44727 C 1279.0336 274.78645 1278.5176 277.18994 1278.5176 279.56836 C 1278.3951 279.77068 1278.2943 279.96431 1278.1719 280.1582 C 1277.4388 281.0439 1279.5547 282.06909 1277.957 282.92383 L 1278.0137 283.11719 L 1277.9707 283.32031 C 1278.6516 284.23904 1279.0478 285.15158 1277.9902 286.07031 C 1278.4957 289.34474 1275.2605 288.59433 1272.7656 288.6582 C 1272.2619 288.6582 1271.7575 288.65039 1271.252 288.65039 C 1270.5101 288.81975 1269.7675 288.99814 1269.0273 289.17578 C 1266.8362 289.36986 1264.6591 289.55315 1262.4766 289.76367 C 1262.1988 289.64171 1261.9303 289.50451 1261.668 289.38281 C 1259.727 289.21353 1257.6028 289.8679 1255.8516 288.76953 C 1253.876 289.09366 1252.4936 291.17479 1249.9746 289.81836 C 1249.4691 290.34409 1248.9637 290.43445 1248.4375 289.83789 L 1248.4375 289.83008 C 1247.7491 289.79077 1247.0557 289.75107 1246.3828 289.72461 C 1245.7289 289.83815 1245.1136 289.82159 1244.7168 289.36328 C 1244.2251 289.4264 1243.6851 289.9804 1243.2676 289.32812 C 1242.8293 288.6014 1242.8915 287.9661 1244.0371 287.61914 C 1241.5975 287.35265 1239.0363 287.96501 1236.6777 287.09375 C 1234.7557 286.75514 1232.4989 288.89315 1230.834 286.67578 C 1226.9175 286.63458 1223.017 286.58612 1219.1074 286.54492 C 1212.2337 287.75505 1205.3511 286.55418 1198.498 286.53906 C 1197.2714 286.11152 1198.0928 284.93431 1197.0352 284.45117 C 1196.7798 284.44286 1196.5439 284.39395 1196.3281 284.33008 C 1195.8364 284.34671 1195.0724 284.22376 1194.9238 284.38477 C 1193.2261 286.35439 1191.05 285.56394 1188.9141 285.03125 L 1188.8926 285.03125 C 1186.9378 283.76568 1185.4903 285.23285 1183.8047 285.51367 C 1183.8255 286.26519 1181.0399 285.63512 1182.4219 287.03906 C 1183.1431 287.23121 1184.1093 286.79684 1184.7148 287.55664 C 1182.9084 287.88697 1181.1641 287.78878 1179.4043 287.65234 C 1178.3674 287.64403 1177.2332 287.91788 1176.4258 287.16016 C 1175.1991 287.36247 1173.965 287.55554 1172.7383 287.75586 C 1172.7496 288.05524 1172.7637 288.36082 1172.7637 288.66016 C 1173.9956 288.69909 1175.2109 288.73218 1176.4238 288.77148 L 1183.1426 288.77148 C 1180.9721 290.30548 1178.681 289.32692 1176.457 289.2793 C 1175.3787 289.95644 1173.9425 289.3432 1172.7969 289.78711 C 1171.5374 289.85937 1170.2906 289.82804 1169.1777 289.28711 C 1167.0349 289.53089 1164.8631 290.22549 1162.5391 289.37695 C 1163.4155 288.48302 1164.5486 288.90217 1165.4043 288.65234 C 1166.1462 288.35297 1166.8996 288.04789 1167.6484 287.74023 C 1165.302 287.35397 1162.7616 288.04793 1160.4824 287.08789 C 1162.8755 286.88569 1165.2477 286.15315 1167.627 287.08008 C 1168.5362 286.67907 1169.501 286.4742 1170.5586 286.66016 C 1172.2442 286.61291 1173.9296 286.57308 1175.6152 286.53906 C 1175.9189 286.36373 1176.2072 286.191 1176.5039 286.01562 C 1176.0312 284.41764 1174.5689 285.36807 1173.4785 285.39453 C 1171.0182 285.61132 1168.424 286.06405 1167.123 283.61133 C 1169.347 283.11991 1171.4145 283.43487 1173.5039 283.8457 C 1174.7047 284.51464 1175.4132 283.36109 1176.457 283.43555 C 1179.604 283.03907 1182.7926 284.28995 1185.9258 283.29688 C 1185.9602 283.1359 1185.9244 282.98208 1185.8242 282.84375 C 1185.4326 281.74746 1183.1281 281.98135 1183.0469 280.69922 C 1181.2284 280.78804 1179.4437 280.66858 1177.6562 280.54688 C 1176.0189 280.98228 1174.3349 280.86939 1172.6699 280.83008 C 1171.281 280.90227 1169.8988 280.97519 1168.5254 281.03906 C 1164.4139 281.66049 1160.2353 281.44351 1156.0703 281.58789 C 1152.8353 282.16793 1149.519 281.87805 1146.2305 282.03906 C 1145.0038 282.02054 1143.7695 281.99779 1142.5566 281.99023 C 1142.3305 282.01018 1142.1049 282.02729 1141.8789 282.04688 C 1141.7866 282.47466 1141.6624 282.89423 1141.5 283.30469 C 1142.0757 283.25264 1142.815 283.15284 1142.873 283.25781 C 1143.2975 284.02358 1142.1657 283.97333 1141.6602 284.21484 C 1141.4879 284.30334 1141.2525 284.33045 1141 284.33984 C 1140.1801 285.73424 1138.828 286.99313 1136.6914 288.04688 C 1123.4494 291.93306 1109.1591 290.56274 1095.4473 291.28906 C 1081.6953 292.03922 1067.8603 291.9564 1054.041 291.30273 C 1053.2395 291.69927 1052.251 291.77556 1051.5176 291.58008 C 1047.8042 290.53946 1044.1186 291.78931 1040.459 291.31445 C 1037.4464 291.77488 1034.5692 290.90227 1031.6172 290.83008 C 1031.3612 290.82252 1031.1107 290.81004 1030.8477 290.79492 C 1028.5966 291.06127 1026.4208 290.90162 1024.3047 290.26367 L 1024.2168 290.26367 C 1023.9673 290.35249 1023.7099 290.43216 1023.4473 290.5293 C 1021.7892 290.57049 1020.1325 290.61896 1018.4746 290.66016 C 1017.2681 291.1431 1015.8713 290.62749 1014.6582 291.05469 C 1014.3955 291.06225 1014.1338 291.07838 1013.8711 291.08594 C 1008.338 291.62482 1002.7364 291.86139 997.20312 291.53711 C 993.67841 291.33679 989.99822 291.71454 986.60156 290.63477 C 985.31418 289.95759 985.14033 288.98046 985.24805 287.93164 C 985.21483 287.89152 985.1883 287.85087 985.15625 287.81055 C 978.47052 289.13215 971.57301 289.37645 964.57227 288.59961 C 963.6058 288.65955 962.55866 288.6887 961.55859 288.71875 C 950.07499 288.98082 938.8796 292.17044 927.21484 290.4707 C 913.00631 292.2004 898.55765 287.66362 884.16797 291.4375 C 879.71145 292.54571 872.81704 291.29024 870.05859 286.90234 C 866.34037 287.46394 862.5083 287.98691 858.73633 288.54102 C 856.82351 288.66083 854.85752 288.77141 852.96484 288.86133 C 847.69622 285.96352 841.01182 290.12045 835.79688 287.22266 C 834.14586 290.06055 830.29319 289.00973 827.24609 289.41406 C 819.46064 291.84761 811.85723 291.64127 804.30664 288.95312 C 803.25964 288.36908 802.23695 287.81355 801.10938 287.25195 C 796.25692 286.02397 791.41253 291.57992 786.42578 287.3418 C 784.77473 286.98985 783.15152 286.66965 781.52734 286.34766 C 779.13796 286.08558 778.61241 284.91683 778.51172 283.53906 C 768.07516 289.76896 757.63926 288.89288 747.2832 283.53906 C 742.20254 286.40692 740.2826 282.84069 737.34961 281.2832 C 730.92657 286.05297 722.06857 280.64808 715.06836 283.74805 C 712.57833 284.85625 712.49763 282.54308 711.83984 281.55469 C 710.79284 279.8849 712.4964 278.97589 714.46289 279.0957 C 724.55714 279.88193 735.12103 277.24859 744.87305 280.82031 C 745.57778 280.76033 746.23725 280.76105 746.92188 280.88086 C 750.59307 277.81088 754.18422 281.66642 757.85547 280.82031 C 758.98302 280.20632 760.02823 279.53196 761.12891 278.91797 C 756.41066 276.66412 756.41151 276.66579 767.0293 272.92188 C 760.21027 269.23784 751.17008 273.59485 744.43164 269.88086 C 736.66626 269.52891 728.9603 269.20607 721.22852 268.82422 C 707.90598 268.35996 694.61745 267.86693 681.29492 267.36523 C 676.57664 265.55317 671.77842 265.29276 666.87891 267.04492 C 658.93234 266.90266 650.80358 268.44888 643.15234 265.7832 C 637.66897 267.24333 632.24559 268.45024 627.05078 265.32031 C 621.3392 266.13649 615.59484 266.71924 609.95703 265.10938 C 604.97701 265.37144 599.87006 266.31016 595.2793 264.09375 C 594.5209 264.12399 593.78232 264.00291 593.1582 263.80078 C 589.3258 265.14111 585.8418 267.19317 581.04297 266.01758 C 580.09661 266.13739 579.20418 265.99596 578.36523 265.67383 C 566.90847 264.35598 554.77397 269.97043 543.78711 263.97266 C 542.10915 264.41444 540.48652 264.81992 538.80859 265.26172 L 538.78125 265.26172 C 536.97414 265.11662 534.78817 265.36973 533.45898 264.73633 C 531.54617 263.85277 527.14387 264.06119 528.79492 261.2832 C 529.05684 260.81142 532.98858 261.39777 535.2168 261.51758 C 540.35125 259.29369 545.49407 258.32711 550.70898 261.45703 C 557.47438 262.88721 563.08429 258.67794 569.74219 259.58398 C 573.31274 259.73373 576.90293 259.14329 580.4668 258.70898 C 577.97677 258.52923 575.45874 258.67738 572.96875 258.44531 C 558.57234 258.8796 544.31095 257.83185 530.04883 256.65625 C 525.27687 256.68649 520.47945 256.77607 515.73438 256.83594 C 502.94203 256.25188 490.06814 257.30135 477.45703 255.19727 C 461.30889 254.70307 445.05378 255.39903 429.03516 253.20508 C 423.68667 252.97294 418.31417 252.71133 412.93945 252.44922 C 406.38492 252.59148 399.82923 253.00377 393.53711 251.42383 C 386.53758 251.86561 379.61506 252.29856 372.5625 251.97656 C 372.16987 256.634 363.23033 255.7798 361.73633 259.75586 C 361.3135 260.28749 361.17812 260.81243 361.3125 261.39648 C 373.50349 264.99813 385.93181 260.45881 398.17578 261.89648 C 402.18665 261.62693 404.96504 265.84275 409.60547 263.38672 C 417.70639 261.89663 425.83323 260.75337 434.45898 262.54297 C 429.3991 271.43106 419.3573 269.78948 409.76172 269.0332 C 405.46228 268.91339 399.82676 265.46221 397.93945 271.25781 C 399.11938 271.90178 400.27085 272.54616 401.42383 273.16016 C 407.97844 273.30242 414.534 273.45342 421.08789 273.5957 C 425.20414 272.92179 428.95391 273.65312 432.4668 275.11328 C 441.69527 271.75114 450.97555 274.41791 460.2832 275.14453 C 451.47418 278.62639 441.56323 276.11082 432.43945 277.54102 C 435.32342 278.62675 438.23433 279.73654 441.14453 280.82227 C 444.47411 281.7283 448.85205 280.20535 452.28711 283.45508 C 443.24179 286.52507 434.82508 284.01083 426.43555 283.13477 C 422.13607 285.08912 417.28726 285.20865 412.33203 284.97656 C 407.90174 283.3667 402.37053 285.58948 398.17578 283.10352 C 389.49761 283.27575 380.55698 286.81771 372.14062 281.26172 L 398.25391 281.26172 C 402.99907 281.11194 407.74328 280.99324 412.46289 280.88086 C 412.5381 279.76517 412.56339 278.68405 412.58984 277.56836 C 407.84593 276.84224 403.07544 276.13986 398.2793 275.40625 C 395.13292 278.16178 390.72911 277.16668 386.69141 277.22656 C 379.90126 277.69086 373.08577 278.04375 366.0332 276.8457 C 368.393 274.09765 372.13986 275.66902 374.94531 274.97266 C 380.31994 269.88091 369.46429 272.16503 369.54492 269.43945 C 363.04341 268.39113 357.35487 263.09744 349.75195 267.6875 C 341.38861 269.64932 332.91941 272.48457 326.3125 265.37109 C 325.76214 264.75708 322.74851 265.20049 320.88672 265.14062 C 319.99541 265.4027 319.0773 265.55393 318.10742 265.58398 C 313.96503 267.3062 317.16231 271.61213 312.44336 273.16211 C 285.70161 273.21461 258.98628 277.57156 232.29688 273.18359 C 217.03868 273.33334 201.8074 273.50451 186.60156 273.6543 C 180.15237 281.69626 171.37049 273.94518 163.89844 275.20312 C 154.69613 278.33306 144.7586 276.11155 135.24219 277.10742 C 139.72489 278.39534 140.01307 280.64782 138.23047 283.24609 C 136.63108 285.6497 134.53497 283.65861 132.67383 283.39648 C 131.02211 285.05881 128.71489 285.14913 126.17188 284.71484 C 123.49798 284.85711 120.84773 285.00611 118.17383 285.14844 C 116.20732 283.74818 114.21534 284.88828 112.22266 285.06055 C 102.39081 289.98007 96.99188 282.42982 89.335938 281.26172 C 82.493447 285.26773 74.259551 282.86451 66.708984 283.47852 C 65.634453 283.9203 64.613978 284.41368 63.591797 284.85547 C 55.071396 284.12166 46.548906 283.42653 38.054688 282.72266 C 35.1707 282.07871 32.286325 281.46427 29.402344 280.82031 C 27.436512 280.82031 25.443065 280.88086 23.476562 280.88086 C 13.828615 280.61879 1.2182589 283.36663 3.2109375 271.46094 C -0.90530836 268.15879 0.58976538 264.82038 3.2636719 261.48828 L 3.109375 260.75391 L 3.3164062 260.05469 C -2.8708874 256.94744 5.3886732 253.26568 2.4785156 250.02344 C 2.0328641 249.31959 1.6109362 248.61501 1.1679688 247.88867 C 1.11562 239.25518 -0.85143788 230.599 2.7929688 222.02539 C 4.1325993 218.31142 -0.19299318 214.53789 2.9003906 210.77148 C 3.7916933 206.11403 2.7965193 201.05932 9.1933594 197.60742 C 16.534529 192.9275 25.054838 189.97077 35.148438 189.29688 C 41.362057 186.96066 47.942337 185.70215 55.099609 185.9043 C 57.747339 185.73206 60.369176 185.55309 63.017578 185.38086 C 74.028657 184.063 85.146049 184.76529 96.236328 184.5332 C 96.128952 183.64962 95.972128 183.24692 95.837891 181.7793 C 95.575478 179.03127 89.86202 179.88524 86.820312 178.76953 C 84.98536 178.7393 83.177419 178.67738 81.341797 178.625 L 55.990234 178.625 C 55.882858 178.1832 55.77976 177.80345 55.699219 177.36914 C 64.298816 176.63533 72.899233 175.92944 81.472656 175.20312 C 82.232409 174.46932 83.018088 173.73608 83.804688 173.00977 C 82.808684 172.86002 81.837017 172.70938 80.867188 172.53711 C 74.365644 172.62699 67.891386 172.70891 61.416016 172.79883 C 61.414001 172.79805 61.412534 172.79765 61.410156 172.79688 L 61.410156 172.79883 C 52.705859 173.0609 44.262615 176.77675 33.460938 173.56445 C 43.869314 172.68838 52.627332 171.92588 61.410156 171.16211 L 61.410156 171.16406 C 61.412209 171.16332 61.413589 171.16287 61.416016 171.16211 C 64.378526 171.13981 66.921364 170.5763 69.044922 169.49805 C 66.187111 167.94806 64.696264 165.98561 64.273438 163.67188 C 64.092247 163.64958 63.90583 163.5613 63.724609 163.53125 C 55.335087 164.14525 46.971551 164.81763 38.582031 165.43164 C 27.833369 168.65143 17.973461 168.15078 9.0859375 162.12305 C 14.224353 159.989 16.609987 155.19723 24.082031 155.60156 C 29.744623 155.57133 35.410457 155.55014 41.046875 155.49023 C 42.934851 154.17238 44.87217 152.85172 46.8125 151.50391 C 46.8125 150.91985 46.739718 150.30606 46.605469 149.66211 C 44.351033 149.87176 42.122726 150.0156 39.527344 150.19531 C 41.336127 145.97964 46.290676 148.20385 49.646484 147.58984 C 50.511611 147.52998 51.352834 147.52998 52.244141 147.58984 C 55.101943 144.7819 59.792339 144.5476 64.091797 143.84375 C 64.219318 143.67155 64.218758 143.5241 64.326172 143.4043 C 64.326172 143.262 64.326575 143.05991 64.378906 142.91016 C 64.323876 141.39013 64.297601 139.83841 64.271484 138.31836 C 64.036587 138.16861 64.218291 137.96811 63.929688 137.81836 C 61.150408 137.90816 58.345803 137.93675 55.541016 137.9668 C 55.53761 137.96489 55.534652 137.96125 55.53125 137.95898 C 55.533144 137.96127 55.535598 137.96453 55.537109 137.9668 C 52.364536 140.51267 48.012704 139.72005 44.027344 139.92969 L 43.976562 139.92969 C 39.912661 142.90987 34.484468 141.38927 29.660156 141.94336 C 24.547917 144.5192 18.650332 145.42479 12.462891 145.80664 C 9.054732 148.32257 4.9901034 147.81943 0.5859375 147.12305 C 2.3947197 144.22525 6.0902524 144.04791 9.6816406 143.75586 C 16.314734 142.46794 22.974713 141.18765 29.660156 139.92969 C 33.540141 139.33815 37.421969 138.72599 41.328125 138.08203 C 45.129585 137.46802 48.905575 136.82821 52.707031 136.1543 L 52.708984 136.1543 C 56.405744 135.42048 60.102454 134.65796 63.851562 133.93164 C 64.321373 133.22778 64.114508 132.38162 64.140625 131.58789 C 64.11379 130.06786 64.085587 128.57602 64.033203 127.08594 C 63.613728 125.61832 63.639332 124.27973 65.789062 123.34375 C 65.869604 122.14569 65.968833 120.93829 66.076172 119.74023 C 65.740588 119.0139 65.923374 118.28264 65.634766 117.54883 C 60.99704 117.19688 56.720516 116.67227 61.439453 110.64453 C 61.620719 108.77257 61.78118 106.90126 61.935547 105.0293 C 58.236773 103.62907 60.180166 100.70074 58.318359 98.798828 C 56.378706 94.650547 60.336426 93.24139 64.164062 91.691406 C 64.042279 90.152957 64.046085 88.649943 65.085938 87.328125 C 62.877931 87.359863 60.671631 87.339523 58.476562 87.210938 C 54.951883 87.01066 51.271661 87.388382 47.875 86.308594 C 46.587731 85.631408 46.413651 84.65428 46.521484 83.605469 C 45.220756 82.034315 44.82228 80.308469 44.957031 78.501953 C 44.208927 75.97696 43.864992 73.444353 44.984375 70.929688 C 44.970769 70.541545 44.949831 70.168832 44.923828 69.791016 C 43.056847 69.153058 41.082739 70.451682 39.222656 69.646484 C 35.374303 69.557703 31.458837 69.647695 28.84375 66.984375 C 28.587836 66.792458 28.3313 66.605119 28.068359 66.394531 C 27.495549 65.967161 27.488924 65.435789 27.529297 64.888672 C 26.54534 64.461302 25.528722 64.073469 26.027344 62.929688 C 26.505951 62.405282 26.0062 61.597014 26.957031 61.210938 C 26.917348 60.69479 26.876662 60.178257 26.830078 59.662109 C 25.616997 58.000115 26.715998 57.856801 27.908203 57.759766 C 27.982391 57.557448 27.935202 57.354563 28.021484 57.154297 C 27.993894 56.823966 27.96797 56.492444 27.947266 56.162109 C 27.394639 55.904036 27.38826 55.533565 27.496094 55.128906 C 27.509549 54.718053 27.516559 54.307784 27.523438 53.888672 C 27.51671 53.669837 27.56999 53.436257 27.449219 53.242188 C 26.485448 53.04191 25.534297 52.831236 24.583984 52.628906 C 23.606756 52.443105 22.637385 52.266968 21.660156 52.097656 C 20.656013 51.920094 19.657571 51.751 18.660156 51.587891 C 16.941552 51.241043 15.230537 50.888312 13.525391 50.533203 C 12.602165 50.452699 11.650524 50.40253 11.185547 49.603516 C 12.31771 49.411516 13.362157 49.273102 14.238281 49.966797 C 15.828866 50.072095 17.34597 50.323 18.660156 51.033203 C 19.900325 51.185972 21.295155 50.766176 22.339844 51.587891 L 22.353516 51.587891 C 23.378018 51.645717 24.496935 51.426938 25.3125 52.128906 C 26.033517 52.137221 26.75429 52.145242 27.46875 52.169922 C 27.542938 52.128612 27.49624 52.07256 27.556641 52.03125 C 27.563368 51.612138 27.571802 51.184733 27.585938 50.765625 C 27.572482 50.724315 27.572266 50.670091 27.572266 50.630859 C 27.544675 50.597977 27.544514 50.555283 27.511719 50.507812 C 26.40647 50.313736 25.199491 50.250791 24.464844 49.476562 C 24.235721 49.493192 24.019271 49.493192 23.796875 49.476562 C 22.934209 49.307279 21.662243 49.920176 21.197266 48.757812 C 21.864452 48.807362 22.436086 48.846508 23.015625 48.904297 C 23.050132 48.726735 23.070313 48.557526 23.070312 48.396484 C 22.571521 48.024843 22.071272 47.662196 21.585938 47.298828 C 20.137003 47.282198 18.682226 47.275893 17.226562 47.267578 C 15.305752 47.379074 14.692009 46.057158 13.371094 45.46875 C 15.65578 43.806756 18.190005 43.668867 20.953125 44.556641 C 23.109791 44.725926 25.25935 44.910797 27.416016 45.080078 C 27.462598 45.071763 27.512011 45.047365 27.558594 45.041016 C 27.667289 44.403058 28.050509 43.862917 28.785156 43.435547 C 28.239261 43.138249 27.583828 42.982757 26.822266 42.976562 C 24.564495 42.765969 22.312365 42.55601 19.636719 42.314453 C 22.411862 41.429256 24.582149 42.452067 26.818359 42.525391 C 26.820065 42.524741 26.820546 42.524085 26.822266 42.523438 C 28.486867 42.54838 30.152889 42.570909 31.824219 42.595703 C 32.073528 42.548232 32.322086 42.508069 32.578125 42.466797 C 32.375916 42.26652 32.173823 42.063658 31.978516 41.861328 C 29.774576 41.661051 27.564184 41.467954 25.353516 41.265625 C 25.374227 41.14589 25.400129 41.039783 25.427734 40.917969 L 31.945312 40.917969 C 32.417191 40.903607 32.881809 40.887146 33.353516 40.878906 C 34.135436 40.571291 35.604414 40.806529 35.671875 40.048828 C 35.706382 39.644169 35.745832 39.532683 35.773438 39.289062 C 32.922498 39.225077 30.064956 39.420004 27.234375 39.056641 C 26.553559 39.00917 25.879863 38.959618 25.199219 38.912109 C 23.359324 38.967857 21.667626 38.620722 20.070312 37.976562 C 17.475616 37.791036 15.285605 36.975915 13.398438 35.685547 C 11.754023 34.733771 12.010374 33.33886 11.78125 32.054688 C 10.986044 31.016199 12.098283 29.975208 11.753906 28.951172 C 10.817051 26.587217 11.32248 24.200784 11.335938 21.820312 C 11.449807 21.620049 11.557313 21.426493 11.671875 21.232422 C 12.419979 20.338455 10.298087 19.323601 11.888672 18.466797 L 11.833984 18.273438 L 11.875 18.072266 C 11.187628 17.153523 10.803182 16.232749 11.861328 15.322266 C 11.349077 12.039569 14.590149 12.79687 17.070312 12.724609 C 17.575835 12.724609 18.0884 12.740234 18.59375 12.740234 C 19.335125 12.56268 20.076984 12.394352 20.818359 12.216797 C 23.001941 12.022726 25.192505 11.831236 27.382812 11.628906 C 27.64558 11.750717 27.907368 11.886004 28.183594 12.007812 C 30.124593 12.177109 32.241023 11.514585 34 12.619141 C 35.968087 12.297064 37.357327 10.215831 39.884766 11.572266 C 40.39702 11.619752 40.908541 11.932973 41.414062 11.546875 C 42.101434 11.586103 42.781379 11.628741 43.46875 11.667969 C 44.12248 11.548222 44.716022 11.57291 45.140625 12.03125 C 45.61906 11.958989 46.159166 11.409533 46.570312 12.072266 C 47.028561 12.788678 46.953133 13.410516 45.800781 13.765625 C 48.24713 14.040215 50.802366 13.426066 53.167969 14.289062 C 55.088785 14.635914 57.346035 12.499428 59.003906 14.716797 C 62.912822 14.758088 66.829578 14.806365 70.751953 14.847656 C 77.612911 13.637807 84.479099 14.83904 91.353516 14.853516 C 92.566597 15.280885 91.745673 16.466551 92.810547 16.941406 C 93.059845 16.949683 93.294315 16.992192 93.523438 17.064453 C 94.002045 17.047937 94.778443 17.169296 94.919922 17 C 96.61834 15.03864 98.795383 15.820406 100.94531 16.361328 C 102.89977 17.626921 104.36187 16.167949 106.0332 15.878906 C 106.01242 15.127396 108.8035 15.757437 107.42188 14.353516 C 106.70069 14.161508 105.73749 14.595595 105.13086 13.837891 C 106.94384 13.507556 108.69589 13.604417 110.44141 13.732422 C 111.47937 13.748938 112.61109 13.474606 113.41992 14.234375 C 114.65255 14.03215 115.87847 13.836874 117.09766 13.636719 C 117.09085 13.329095 117.08568 13.032233 117.06641 12.724609 C 115.85315 12.693655 114.63192 12.660432 113.41211 12.619141 L 106.69922 12.619141 C 108.86279 11.087215 111.16172 12.063843 113.39258 12.111328 C 114.47091 11.425885 115.89236 12.039589 117.03125 11.595703 C 118.30506 11.531701 119.55296 11.564673 120.6582 12.103516 C 122.81487 11.861958 124.9775 11.16719 127.30273 12.013672 C 126.41971 12.909704 125.29539 12.490419 124.43945 12.740234 C 123.69135 13.039599 122.94255 13.345166 122.20117 13.644531 C 124.54659 14.038868 127.09487 13.346607 129.35938 14.306641 C 126.96668 14.506906 124.57937 15.241435 122.20703 14.314453 C 121.30399 14.717048 120.34135 14.918235 119.2832 14.732422 C 117.59841 14.77165 115.91347 14.814288 114.22852 14.853516 C 113.93213 15.022812 113.63534 15.199398 113.33203 15.376953 C 113.81719 16.974945 115.26584 16.023268 116.37109 15.990234 C 118.8378 15.78171 121.41997 15.330583 122.7207 17.78125 C 120.5033 18.274687 118.41451 17.957729 116.33203 17.546875 C 115.13913 16.86969 114.42364 18.03331 113.39258 17.958984 C 110.24506 18.355386 107.04991 17.102636 103.91602 18.095703 C 103.88162 18.256741 103.91669 18.402243 104.02539 18.548828 C 104.40945 19.645125 106.70766 19.409185 106.80859 20.693359 C 108.62157 20.604582 110.40182 20.723878 112.20117 20.845703 C 113.81867 20.410075 115.50254 20.525225 117.1875 20.564453 C 118.56914 20.492192 119.95125 20.419471 121.32617 20.355469 L 121.33203 20.355469 C 125.44802 19.751569 129.62422 19.94284 133.77344 19.806641 C 135.2618 19.540306 136.76521 19.467283 138.27344 19.439453 C 138.41478 18.934441 138.6086 18.442219 138.86133 17.964844 C 138.02995 17.634054 137.19937 17.31163 136.21094 17.394531 C 133.37449 16.991936 130.70557 17.8687 127.93555 17.949219 C 127.80787 17.957458 127.68013 17.957162 127.57227 17.917969 C 126.77033 17.676412 125.46854 17.780512 125.65039 16.78125 C 125.75649 16.206778 126.32546 15.998531 126.97852 15.955078 C 127.1962 15.940594 127.42405 15.944532 127.64648 15.958984 C 130.74656 16.120022 133.84684 16.2975 136.94727 16.466797 C 137.9505 16.05227 138.8974 16.318752 139.82031 16.564453 C 140.19002 16.138751 140.6321 15.730841 141.14062 15.339844 C 139.38947 15.372989 137.79583 15.126651 136.20508 14.796875 C 134.98527 14.683323 133.69711 15.072172 132.28906 14.53125 C 133.11841 14.068008 133.88477 13.72783 134.68555 13.744141 C 135.1648 13.753903 135.65712 13.891302 136.18164 14.207031 C 136.18368 14.205239 136.18347 14.202966 136.18555 14.201172 C 138.27471 14.110404 140.36913 14.00392 142.82227 14.265625 C 142.98416 14.178752 143.13858 14.090205 143.31055 14.005859 C 144.40587 13.681225 145.51159 13.404616 146.62109 13.148438 C 146.31471 13.12716 146.00881 13.112995 145.70117 13.080078 C 144.22601 13.129628 142.70842 13.40961 140.70703 12.804688 C 141.82505 12.523903 142.36495 12.386263 142.91016 12.25 C 144.41982 12.132319 145.92625 12.066605 147.42578 12.117188 C 148.41763 12.150643 149.40714 12.241975 150.39258 12.394531 C 161.55313 10.515033 173.25653 11.332665 184.55078 10.734375 C 195.66658 10.127277 206.85195 10.068775 218.03516 10.416016 C 219.8973 9.7596397 221.77456 9.7277909 223.69336 10.371094 C 224.36891 10.467245 225.19605 10.270117 225.68359 10.714844 C 225.93691 10.726833 226.19006 10.743477 226.44336 10.755859 C 227.68193 10.450642 229.12987 11.216494 230.30469 10.523438 C 230.79123 10.548229 231.29539 10.578295 231.78711 10.611328 C 232.75675 10.764108 233.74338 10.909609 234.69922 11.064453 C 235.23105 10.157066 236.3601 9.7343401 237.375 9.7089844 z M 122.20117 13.644531 C 122.11318 13.716792 122.02623 13.781701 121.94531 13.845703 L 122.27539 13.845703 L 122.20117 13.644531 z M 432.43945 277.54102 L 432.72852 276.81445 L 431.44336 276.81445 C 431.75782 277.04659 432.09725 277.2789 432.43945 277.54102 z M 767.0293 272.92188 L 767.41992 273.5957 C 767.6346 273.53584 767.7333 273.62594 767.89453 273.5957 C 767.63261 273.36356 767.15686 273.21392 767.0293 272.92188 z M 1167.6484 287.74023 C 1167.7293 287.68468 1167.8084 287.6127 1167.8965 287.54883 L 1167.582 287.54883 L 1167.6484 287.74023 z M 1172.7383 287.75586 L 1172.7383 287.55664 L 1172.5371 287.55664 C 1172.6044 287.62051 1172.671 287.68367 1172.7383 287.75586 z M 867.38086 24.449219 C 867.11894 24.711295 866.85533 24.945631 866.59375 25.177734 L 867.38086 25.177734 L 867.38086 24.449219 z M 847.58789 24.511719 L 847.32617 25.207031 L 848.55469 25.207031 C 848.21264 24.974904 847.90322 24.713886 847.58789 24.511719 z M 513 29.099609 L 512.58398 28.425781 C 512.36931 28.485683 512.29491 28.395885 512.08008 28.425781 C 512.342 28.657908 512.81866 28.807566 513 29.099609 z M 64.1875 10.701172 C 64.670598 10.721872 65.155436 10.816669 65.642578 11.039062 C 68.446243 11.103065 71.288868 10.829731 74.550781 11.451172 C 72.50868 11.926028 60.53388 12.297752 59.496094 12.064453 C 59.098404 11.983934 58.78717 11.852268 58.935547 11.585938 C 59.218482 11.11934 59.878831 11.121094 60.492188 11.121094 C 61.566313 11.086254 62.633579 10.753893 63.705078 10.703125 C 63.865803 10.69551 64.026467 10.694272 64.1875 10.701172 z M 302.16016 11.095703 C 302.18094 11.103942 302.18126 11.121094 302.19336 11.121094 C 302.19336 11.104577 302.18164 11.10398 302.18164 11.095703 L 302.16016 11.095703 z M 93.373047 11.40625 C 94.084898 11.401089 94.823918 11.563251 95.484375 11.53125 C 94.60825 12.724583 93.301273 12.838689 91.427734 12.28125 C 91.976994 11.584451 92.661196 11.411411 93.373047 11.40625 z M 86.699219 11.53125 C 87.614119 11.535379 88.55261 11.603254 89.533203 11.861328 C 87.572018 12.474511 85.779589 12.030974 84.027344 12.072266 C 83.003012 12.063988 81.944785 12.312671 80.408203 11.585938 L 84.007812 11.585938 C 84.894029 11.585937 85.784318 11.527121 86.699219 11.53125 z M 129.73438 11.550781 C 130.28868 11.55491 130.85773 11.70442 131.38672 11.861328 C 131.81133 11.991397 131.51347 12.465915 130.98828 12.626953 C 129.78193 13.248394 128.6896 13.490474 128.16406 12.111328 C 128.63913 11.688087 129.18005 11.546652 129.73438 11.550781 z M 20.236328 13.160156 C 20.196647 13.18495 20.141248 13.201898 20.101562 13.224609 C 20.115207 13.241126 20.148176 13.223718 20.175781 13.240234 C 20.196493 13.215441 20.215624 13.193189 20.236328 13.160156 z M 117.09961 13.638672 L 117.09961 13.837891 L 117.30664 13.837891 C 117.24682 13.766318 117.17324 13.709936 117.09961 13.638672 z M 1073.8613 13.792969 C 1078.4623 13.755173 1082.9836 15.203889 1087.584 15.322266 C 1090.0203 15.322266 1092.5887 15.322713 1093.6895 17.044922 C 1094.2935 17.980908 1093.0333 18.454055 1091.5098 18.746094 C 1087.4761 19.592225 1040.8631 18.251182 1032.9434 16.521484 C 1045.5814 14.297592 1056.642 15.261408 1067.5215 15.029297 C 1069.6608 14.133099 1071.77 13.81028 1073.8613 13.792969 z M 30.5625 14.669922 C 30.48141 14.700876 30.393809 14.732257 30.320312 14.771484 C 30.387599 14.771484 30.460096 14.78125 30.541016 14.78125 C 30.520304 14.733764 30.5625 14.717408 30.5625 14.669922 z M 147.43359 15.234375 C 147.40525 15.234375 147.37963 15.262398 147.35352 15.322266 C 147.42733 15.322266 147.42774 15.264362 147.53516 15.234375 L 147.43359 15.234375 z M 33.560547 15.863281 C 33.479457 15.885996 33.398761 15.901898 33.318359 15.910156 C 33.34595 15.943189 33.399768 15.925951 33.439453 15.958984 C 33.47396 15.909435 33.527763 15.902509 33.560547 15.863281 z M 54.587891 15.892578 C 54.587891 15.900855 54.601563 15.909265 54.601562 15.925781 C 54.608366 15.909265 54.615866 15.900855 54.623047 15.892578 L 54.587891 15.892578 z M 31.808594 16.087891 C 31.795139 16.09613 31.769662 16.095238 31.755859 16.103516 C 31.769503 16.225326 31.7285 16.3283 31.654297 16.433594 C 31.70088 16.425354 31.756152 16.425781 31.802734 16.425781 C 31.802734 16.312229 31.808594 16.201443 31.808594 16.087891 z M 959.70898 16.378906 C 962.47832 16.397615 965.13191 17.020374 967.26953 19.5625 C 959.98071 21.584222 954.8685 21.170436 951.45898 16.8125 C 954.05639 16.94354 956.93957 16.360339 959.70898 16.378906 z M 985.66211 16.826172 C 989.22511 16.818688 992.68648 17.044922 996.10938 17.044922 L 1010.1113 17.044922 C 1004.1583 19.710601 1000.0425 18.744805 996.10938 18.804688 C 989.20989 18.624979 982.26343 20.265563 974.60547 18.011719 C 978.43443 17.075751 982.09907 16.83378 985.66211 16.826172 z M 818.23633 16.910156 C 820.39327 16.887706 822.51086 17.382959 824.38672 18.917969 C 822.25915 23.949812 818.06399 23.074812 813.3457 20.791016 C 811.32551 20.206963 810.15154 18.48345 811.84961 18.011719 C 813.88322 17.472592 816.07939 16.932527 818.23633 16.910156 z M 580.02148 16.916016 L 580.02148 16.917969 C 581.49301 16.96945 583.18638 17.532126 584.54883 18.363281 C 586.56906 19.127042 588.90368 19.623243 590.55469 20.708984 C 593.82995 22.783121 598.18579 14.913374 599.41406 20.708984 C 600.38725 24.977063 593.07203 21.814959 589.84375 23.042969 C 588.40745 23.544493 586.2263 23.074219 584.36719 23.074219 C 579.83009 23.07422 575.40026 22.075288 576.81641 18.541016 C 577.29966 17.324261 578.54996 16.864534 580.02148 16.916016 z M 31.324219 17.361328 C 31.331135 17.441847 31.525437 17.507202 31.734375 17.554688 C 31.741103 17.546448 31.75484 17.522265 31.761719 17.507812 C 31.478591 17.458265 31.46587 17.419136 31.324219 17.361328 z M 627.61719 17.740234 C 629.64997 17.736492 631.23077 18.292566 631.375 20.355469 C 631.71705 24.683454 625.31916 22.692039 621.51367 22.841797 C 616.97665 23.07392 612.34068 23.575559 608.9043 20.498047 C 611.68297 17.6901 615.2267 18.835883 618.60938 19.330078 C 619.44831 19.038053 620.28736 18.59476 621.14648 18.482422 C 623.09956 18.306458 625.58437 17.74398 627.61719 17.740234 z M 60.621094 17.910156 C 60.574492 17.943189 60.519258 17.982592 60.472656 18.015625 C 60.519258 18.023864 60.574492 18.023437 60.621094 18.023438 C 60.607487 17.96563 60.6347 17.949384 60.621094 17.910156 z M 80.382812 17.943359 C 80.369208 17.957797 80.354459 17.982592 80.347656 18.015625 L 80.457031 18.015625 C 80.491425 17.999108 80.496743 17.983313 80.53125 17.966797 C 80.484648 17.95852 80.422498 17.966074 80.382812 17.943359 z M 87.652344 18.023438 C 87.66595 18.031713 87.673828 18.033203 87.673828 18.033203 L 87.673828 18.023438 C 87.667025 18.031713 87.666328 18.023438 87.652344 18.023438 z M 59.003906 18.548828 L 59.003906 18.570312 L 59.042969 18.570312 C 59.036166 18.562037 59.016001 18.555027 59.003906 18.548828 z M 641.07812 18.654297 C 643.10354 18.576057 645.65133 19.451533 647.3418 20.878906 C 651.87886 21.403058 655.99262 17.253905 660.3418 20.001953 C 662.85866 21.58189 661.1283 23.425632 658.56445 24.683594 L 658.58984 24.683594 C 660.60335 25.911602 662.67805 27.170427 664.75195 28.398438 C 665.14124 32.666519 663.04659 33.197231 655.75781 30.763672 C 650.2744 30.149672 643.96038 32.665503 639.39648 28.689453 C 638.55754 25.035374 643.17555 27.932107 644.37695 26.726562 C 644.3505 25.4686 644.33008 24.188622 644.33008 22.953125 L 644.5625 22.78125 C 641.54217 22.6091 636.48982 22.547326 638.29492 19.912109 C 638.83604 19.089383 639.86287 18.701258 641.07812 18.654297 z M 420.79297 18.804688 C 420.92752 18.91698 421.23474 18.917314 421.36914 19.126953 C 421.3953 19.037919 421.47422 19.036804 421.50195 19.007812 C 421.34397 18.83566 420.97427 18.894556 420.79297 18.804688 z M 753.78516 18.882812 C 758.16056 18.891468 762.54699 19.10263 766.94141 19.419922 L 767.02148 19.419922 C 769.11553 19.914123 771.21774 20.444543 775.59375 21.462891 C 767.80826 23.656837 761.90978 22.637374 756.14453 22.427734 C 747.9631 23.251397 739.88747 23.162695 732.02148 20.96875 C 739.23226 19.415017 746.49275 18.86847 753.78516 18.882812 z M 695.57227 18.933594 C 696.1578 18.947342 696.72616 18.979092 697.2832 19.037109 C 702.21628 19.591212 707.89905 17.547439 711.83203 21.029297 C 712.35557 21.523497 711.96849 23.30334 711.31055 23.542969 C 705.54526 25.497292 699.51185 25.821517 693.66602 23.867188 C 691.64582 23.223231 689.63275 22.107788 689.67969 19.007812 C 691.16296 19.007812 692.50607 18.95708 693.75781 18.935547 C 694.38366 18.924775 694.98673 18.919845 695.57227 18.933594 z M 64.091797 19.691406 C 64.119387 19.749214 64.152097 19.750281 64.179688 19.78125 C 64.219371 19.756456 64.287421 19.75556 64.333984 19.724609 C 64.252914 19.691576 64.179293 19.724439 64.091797 19.691406 z M 117.6543 20.845703 C 117.74253 20.943287 117.81554 21.05045 117.875 21.167969 C 117.875 21.103966 117.86914 21.040676 117.86914 20.974609 C 117.79698 20.931694 117.72625 20.888899 117.6543 20.845703 z M 52.621094 21.0625 C 52.625814 21.066237 52.628157 21.070463 52.632812 21.074219 C 52.631696 21.070332 52.630047 21.066372 52.628906 21.0625 L 52.621094 21.0625 z M 132.64648 21.490234 C 132.6257 21.498474 132.61858 21.506921 132.59961 21.523438 C 132.6049 21.523438 132.6182 21.523011 132.625 21.53125 C 132.625 21.506456 132.64648 21.506732 132.64648 21.490234 z M 53.101562 21.791016 C 53.103596 21.801399 53.111566 21.809828 53.113281 21.820312 C 53.126888 21.814116 53.133822 21.820652 53.140625 21.814453 C 53.124082 21.807891 53.116869 21.798054 53.101562 21.791016 z M 1244.1816 22.783203 C 1244.3071 22.843079 1244.3881 22.931424 1244.4414 23.042969 C 1244.4883 22.953099 1244.6495 23.042991 1244.75 22.953125 C 1244.5699 22.87137 1244.3881 22.813405 1244.1816 22.783203 z M 67.900391 22.814453 C 67.865997 22.839247 67.833335 22.861944 67.798828 22.886719 C 67.852308 22.886719 67.900664 22.902344 67.947266 22.902344 C 67.926478 22.869311 67.907307 22.839228 67.900391 22.814453 z M 39.445312 22.886719 C 39.491914 22.936268 39.554065 22.935827 39.59375 22.966797 C 39.688654 22.911053 39.848957 22.983754 39.929688 22.886719 C 39.767508 22.870202 39.606986 22.903235 39.445312 22.886719 z M 798.99023 24.845703 C 802.10521 24.795027 805.08671 26.023847 808.3125 27.722656 C 802.88952 29.654525 797.8286 28.255825 793.05664 28.660156 C 782.17712 30.764246 771.34379 32.05091 757.00781 28.224609 C 771.34379 25.499033 782.22497 26.059846 793.1582 26.494141 C 795.20444 25.365344 797.12126 24.876027 798.99023 24.845703 z M 415.78906 24.945312 L 415.78906 24.976562 C 415.86768 25.015246 415.96177 24.996481 416.05664 24.976562 C 415.96631 24.966964 415.88431 24.954912 415.78906 24.945312 z M 41.380859 25.005859 C 41.380859 25.014099 41.367187 25.007386 41.367188 25.015625 L 41.373047 25.023438 C 41.37985 25.015198 41.4014 25.005859 41.408203 25.005859 L 41.380859 25.005859 z M 41.373047 25.023438 L 41.359375 25.023438 C 41.359375 25.039952 41.337891 25.038598 41.337891 25.046875 L 41.337891 25.048828 C 41.358678 25.040589 41.366244 25.03999 41.373047 25.023438 z M 416.38672 25.009766 C 416.38294 25.038074 416.33984 25.068609 416.33984 25.125 L 416.57617 25.125 C 416.57617 25.065034 416.60156 25.06506 416.60156 25.035156 C 416.53315 25.027181 416.45784 25.01774 416.38867 25.009766 L 416.38672 25.009766 z M 543.74609 25.837891 C 545.47266 25.845374 546.95339 26.262225 548.41992 27.490234 C 545.14466 29.27235 542.2631 29.214817 537.5918 26.646484 C 540.04486 26.234675 542.01953 25.830319 543.74609 25.837891 z M 38.433594 26.613281 L 38.433594 26.685547 C 38.467987 26.652514 38.487873 26.629798 38.529297 26.613281 L 38.433594 26.613281 z M 38.433594 26.685547 C 38.412806 26.66903 38.399946 26.684485 38.380859 26.667969 C 38.406914 26.701417 38.417954 26.734363 38.433594 26.767578 C 38.433608 26.740412 38.433594 26.71241 38.433594 26.685547 z M 700.1543 26.625 C 702.75 26.620313 705.30692 27.178704 707.77344 28.597656 C 713.53873 26.613369 719.09653 26.143729 725.99609 30.179688 C 716.76762 29.685487 709.60484 33.601579 701.61133 30.763672 C 698.98705 31.35522 696.41727 32.171501 693.74609 32.433594 C 691.59834 32.665717 688.71181 32.462176 688.8125 30.328125 C 688.893 29.534409 690.85971 28.484757 692.30273 28.042969 C 694.92361 27.196843 697.55856 26.629794 700.1543 26.625 z M 563.03711 26.75 C 565.02624 26.81926 567.05176 27.182877 569.32031 27.751953 C 564.20601 31.465941 560.95742 29.947554 556.9707 27.521484 C 559.09491 26.907461 561.04794 26.680727 563.03711 26.75 z M 38.427734 27.25 C 38.419047 27.279387 38.417049 27.308318 38.408203 27.337891 C 38.414602 27.337891 38.416077 27.323784 38.427734 27.322266 C 38.428506 27.298367 38.427128 27.274085 38.427734 27.25 z M 1204.0645 28.195312 C 1204.0645 28.367523 1204.1986 28.426753 1204.1445 28.628906 C 1204.4065 28.628906 1204.7208 28.597656 1204.9824 28.597656 C 1204.6678 28.425723 1204.4058 28.33716 1204.0645 28.195312 z M 15.660156 32.515625 C 15.653429 32.532142 15.628007 32.514733 15.621094 32.53125 L 15.708984 32.53125 C 15.695529 32.514733 15.681102 32.532142 15.662109 32.515625 L 15.660156 32.515625 z M 1192.3438 32.523438 C 1192.5251 32.665724 1192.7342 32.725248 1192.8418 32.875 C 1193.0028 32.755333 1193.2636 32.844405 1193.3105 32.724609 C 1193.0018 32.634762 1192.6589 32.613329 1192.3438 32.523438 z M 1110.4707 32.634766 C 1110.4707 32.664699 1110.5176 32.724003 1110.5176 32.753906 L 1110.5176 32.634766 L 1110.4707 32.634766 z M 827.67383 32.828125 C 830.75067 32.804465 833.68059 33.424722 834.13867 35.855469 C 834.84344 39.487083 829.80902 39.104386 826.66797 39.980469 C 826.27195 40.122579 825.74992 40.099609 825.27344 40.099609 C 814.47442 39.80012 804.03685 36.651196 793.05664 38.111328 C 784.84834 37.437422 779.39819 43.491015 770.74023 42.292969 C 766.54545 41.701424 761.46578 41.763147 762.30469 37.876953 C 762.95571 34.949195 766.10402 34.656766 770.82227 35.794922 C 777.06412 37.262547 783.27806 32.050467 790.22461 34.746094 C 802.28538 34.102135 814.29274 33.45905 826.35352 32.875 C 826.79228 32.848732 827.23427 32.831508 827.67383 32.828125 z M 1199.2109 33.337891 L 1199.2109 34.568359 C 1199.426 34.568359 1199.6058 34.567053 1199.7871 34.626953 C 1199.4719 34.245074 1199.3454 33.871473 1199.4258 33.429688 C 1199.3459 33.37018 1199.265 33.367126 1199.2109 33.337891 z M 47.970703 34.136719 L 47.984375 34.169922 C 47.997981 34.161645 48.010775 34.153235 48.017578 34.136719 L 47.970703 34.136719 z M 47.984375 34.169922 C 47.94469 34.186438 47.905081 34.161645 47.851562 34.169922 C 47.858366 34.194678 47.851563 34.20279 47.851562 34.208984 C 47.897727 34.195327 47.952007 34.20251 47.984375 34.169922 z M 1201.0488 37.990234 C 1200.5253 38.169951 1200.4727 38.31246 1199.4258 38.492188 C 1199.4258 38.574542 1199.4727 38.630071 1199.4727 38.660156 C 1200.2647 38.487923 1201.0488 38.282278 1201.0488 37.990234 z M 646.23047 38.195312 C 643.12468 38.283035 640.70757 39.829705 638.11523 40.947266 C 638.63877 41.059442 639.13419 40.977743 639.63086 41.089844 L 639.65625 41.089844 C 643.75035 41.12008 647.75895 41.499238 651.82617 41.529297 C 651.06108 40.623265 650.17487 40.180195 649.59766 38.660156 C 648.37785 38.295092 647.26767 38.166015 646.23242 38.195312 L 646.23047 38.195312 z M 25.193359 38.466797 C 25.196871 38.546535 25.196463 38.623238 25.197266 38.699219 C 25.254525 38.610713 25.377732 38.544713 25.476562 38.466797 L 25.193359 38.466797 z M 1087.1328 39.951172 C 1087.0523 40.100917 1087.1332 40.181596 1087.0527 40.361328 L 1087.6582 40.361328 C 1087.5308 40.211583 1087.3142 40.100932 1087.1328 39.951172 z M 1010.2383 40.068359 C 1010.0569 40.180649 1009.8415 40.123688 1009.6602 40.183594 C 1009.794 40.21383 1009.8409 40.303937 1010.002 40.333984 L 1010.4004 40.333984 C 1010.3199 40.214211 1010.3192 40.120744 1010.2383 40.068359 z M 981.875 40.361328 L 981.875 40.394531 C 981.875 40.394531 981.92186 40.391674 981.92188 40.361328 C 981.92188 40.361328 981.875 40.391564 981.875 40.361328 z M 1093.375 42.265625 C 1093.375 42.31816 1093.2957 42.31701 1093.2148 42.376953 L 1093.375 42.376953 L 1093.375 42.265625 z M 27.486328 45.09375 C 27.50406 45.108152 27.520587 45.125213 27.550781 45.121094 L 27.550781 45.105469 C 27.531826 45.101497 27.50903 45.097828 27.486328 45.09375 z M 1073.582 46.443359 C 1073.3201 46.533237 1072.9795 46.44138 1072.6641 46.53125 C 1072.8455 46.651023 1073.1057 46.65326 1073.3203 46.765625 C 1073.3668 46.623326 1073.5015 46.623038 1073.582 46.443359 z M 18.619141 46.708984 C 18.558755 46.772972 18.485174 46.814284 18.390625 46.853516 C 18.504498 46.847468 18.579666 46.750463 18.6875 46.742188 C 18.680772 46.725558 18.632943 46.733551 18.619141 46.708984 z M 584.41992 46.998047 C 584.36625 47.057915 584.25729 46.998692 584.18359 47.058594 C 584.28413 47.08883 584.39361 47.116399 584.49414 47.146484 C 584.44652 47.086617 584.44638 47.057915 584.41992 46.998047 z M 718.17383 47.085938 C 718.25433 47.116173 718.33789 47.086586 718.33789 47.146484 L 718.44531 47.146484 C 718.39164 47.086579 718.25433 47.115908 718.17383 47.085938 z M 744.16211 47.408203 C 744.16211 47.58792 744.52662 47.528939 744.60742 47.701172 C 744.68793 47.670936 744.73344 47.588641 744.78711 47.558594 C 744.60569 47.528358 744.34341 47.408203 744.16211 47.408203 z M 865.24805 50.587891 C 864.96987 50.747236 864.68647 50.906594 864.42188 51.0625 L 864.42188 51.767578 C 864.65242 51.342056 864.91114 50.941424 865.24805 50.587891 z M 1118.2031 51.355469 C 1118.188 51.396968 1118.1765 51.44062 1118.1641 51.482422 C 1118.2064 51.451052 1118.2375 51.41756 1118.2812 51.386719 L 1118.2031 51.355469 z M 601.48633 52.703125 C 601.45987 52.763068 601.43453 52.792218 601.38086 52.822266 L 601.54102 52.822266 C 601.48735 52.792029 601.48633 52.763068 601.48633 52.703125 z M 806.92188 52.935547 C 806.92188 53.025424 807.00391 53.024117 807.00391 53.083984 C 807.00391 53.053748 807.08399 53.054687 807.13086 53.054688 C 807.08399 53.024451 807.00237 52.965594 806.92188 52.935547 z M 1116.3379 54.066406 C 1116.3039 54.081146 1116.2745 54.097457 1116.2363 54.111328 C 1116.2363 54.141186 1116.3164 54.1102 1116.3164 54.140625 C 1116.3201 54.114924 1116.3361 54.091918 1116.3398 54.066406 L 1116.3379 54.066406 z M 23.775391 55.664062 C 24.668178 55.683225 25.487394 55.964141 26.033203 57.306641 C 24.489893 56.53242 23.67407 56.122237 22.865234 55.703125 C 23.171869 55.680931 23.477795 55.657677 23.775391 55.664062 z M 618.39648 57.001953 C 618.42294 57.001953 618.42187 57.000832 618.42188 57.03125 L 618.47461 57.001953 L 618.39648 57.001953 z M 1058.8184 57.734375 C 1058.7715 57.824214 1058.6903 57.93683 1058.6094 58.056641 C 1058.8176 58.056641 1059.0316 58.025391 1059.2129 58.025391 C 1059.0788 57.905963 1058.9522 57.823947 1058.8184 57.734375 z M 1168.0703 57.994141 C 1167.9154 57.996423 1167.7637 58.004667 1167.6191 58.027344 C 1167.9344 58.349473 1168.5376 58.086259 1168.9336 58.318359 C 1169.0613 58.17606 1169.3239 58.177089 1169.5117 58.027344 C 1169.0386 58.049265 1168.5359 57.98866 1168.0703 57.994141 z M 1161.8535 65.693359 C 1161.934 65.693359 1161.9352 65.715523 1161.9824 65.775391 L 1161.9824 65.716797 C 1161.9824 65.694498 1161.9355 65.715643 1161.9355 65.693359 L 1161.8535 65.693359 z M 1161.9824 65.775391 C 1162.0361 65.805249 1162.0344 65.806079 1162.1152 65.835938 C 1162.1152 65.806079 1162.0352 65.805627 1162.0352 65.775391 C 1162.0352 65.805627 1161.9824 65.775391 1161.9824 65.775391 z M 56.845703 70.121094 C 56.818113 70.129409 56.799971 70.130859 56.779297 70.130859 C 56.800084 70.139174 56.779994 70.163572 56.800781 70.169922 C 56.814388 70.13893 56.838787 70.139526 56.845703 70.123047 L 56.845703 70.121094 z M 1173.0762 71.511719 C 1173.1767 71.571549 1173.335 71.654118 1173.3887 71.773438 C 1173.3887 71.863767 1173.3965 71.959846 1173.3965 72.050781 C 1173.4509 71.958258 1173.5172 71.865355 1173.5996 71.773438 C 1173.5191 71.773438 1173.4375 71.743201 1173.3906 71.773438 L 1173.3906 71.511719 L 1173.0762 71.511719 z M 1173.4297 73.869141 C 1173.4335 73.953197 1173.4375 74.032942 1173.4375 74.117188 C 1173.4375 74.117188 1173.5195 74.118337 1173.5195 74.140625 C 1173.4893 74.049538 1173.4623 73.959471 1173.4316 73.869141 L 1173.4297 73.869141 z M 45.814453 73.919922 C 45.814453 73.992186 45.828125 74.065346 45.828125 74.121094 L 46.015625 74.121094 C 45.934554 74.065346 45.92867 73.983947 45.814453 73.919922 z M 48.914062 85.945312 C 48.920866 85.961942 48.928366 85.970703 48.935547 85.970703 L 48.960938 85.970703 C 48.933347 85.962388 48.933074 85.945312 48.914062 85.945312 z M 1262.0059 92.917969 C 1261.9254 92.977836 1261.8706 92.920567 1261.7969 92.980469 L 1262.1328 92.980469 C 1262.1328 92.920601 1262.0059 92.977867 1262.0059 92.917969 z M 1136.0801 98.826172 C 1136.1606 98.856408 1136.2422 98.88736 1136.2422 98.947266 C 1136.4236 99.036878 1136.6047 99.006501 1136.7656 99.066406 C 1136.8125 99.03617 1136.7656 99.007133 1136.7656 98.947266 C 1136.6042 98.88736 1136.4235 98.977502 1136.2891 98.947266 L 1136.2891 98.826172 L 1136.0801 98.826172 z M 1223.8555 114.50781 C 1224.1832 114.75889 1224.6551 114.97178 1224.9023 115.26367 L 1224.9023 114.50781 L 1223.8555 114.50781 z M 58.341797 119.1875 C 55.510844 125.67947 50.792779 125.3259 46.021484 125.00391 C 49.167892 123.48388 52.338259 121.99544 58.341797 119.1875 z M 1216.0098 138.55078 C 1215.9172 138.5727 1215.8332 138.59456 1215.7285 138.60938 C 1215.7822 138.60938 1215.7279 138.64258 1215.7812 138.64258 C 1215.8788 138.65656 1215.9429 138.60056 1216.0098 138.55078 z M 1250.4688 144.39844 C 1250.3882 144.48805 1250.2856 144.48753 1250.2051 144.51758 C 1250.6482 144.54781 1250.9102 144.90159 1251.3867 144.93164 C 1251.0715 144.81187 1250.7306 144.63052 1250.4688 144.39844 z M 28.613281 157.09766 C 28.981075 157.23996 29.268982 157.39291 29.503906 157.625 C 29.557621 157.53501 29.741454 157.56381 29.767578 157.50391 C 29.348103 157.47367 29.056246 157.12011 28.613281 157.09766 z M 64.246094 163.38086 C 64.121709 163.36499 64.055896 163.43205 63.982422 163.48633 C 64.075701 163.47159 64.168084 163.45637 64.246094 163.44141 L 64.246094 163.38086 z M 1230.4629 176.90039 C 1231.6314 176.87998 1232.8316 176.96446 1234.0312 177.04492 C 1230.803 178.535 1227.6628 180.02602 1221.6289 182.83398 C 1223.7332 177.965 1226.9572 176.96145 1230.4629 176.90039 z M 55.085938 186.72656 C 55.082525 186.98478 55.087065 187.24263 55.074219 187.51367 L 56.175781 187.51367 C 55.807088 187.24264 55.322108 187.02683 55.085938 186.72656 z M 143.21289 202.96289 C 143.21289 202.98519 143.23897 203.01364 143.21289 203.10352 C 143.41846 203.13337 143.57974 203.04788 143.73242 203.10352 C 143.60619 202.98488 143.39294 203.01316 143.21289 202.96289 z M 143.73633 203.10742 L 143.68555 203.22266 L 143.86719 203.22266 C 143.84111 203.1646 143.78716 203.13671 143.73633 203.10742 z M 17.839844 209.04102 C 17.866716 209.10088 17.968024 209.04166 17.994141 209.10156 L 18 209.10156 C 18.073818 209.04169 18.129287 209.10091 18.181641 209.04102 L 17.839844 209.04102 z M 1240.8887 215.41992 C 1240.9113 215.42748 1240.9105 215.44727 1240.9219 215.44727 C 1240.9219 215.42837 1240.9102 215.42748 1240.9102 215.41992 L 1240.8887 215.41992 z M 1243.8418 227.26172 C 1243.9091 227.32559 1243.9233 227.40683 1244.0234 227.4707 C 1244.0386 227.39851 1244.0121 227.32559 1244.0234 227.26172 C 1243.9369 227.26928 1243.8883 227.26172 1243.8418 227.26172 z M 106.48242 227.88086 C 106.5085 227.96276 106.53248 228.04348 106.55859 228.125 C 106.55677 228.06128 106.5588 227.99495 106.55664 227.93164 L 106.5625 227.93164 C 106.50804 227.93164 106.50854 227.88086 106.48242 227.88086 z M 106.58008 230.00977 C 106.52475 230.10834 106.45781 230.2075 106.375 230.30664 C 106.44881 230.24677 106.50149 230.30791 106.58203 230.24805 C 106.58203 230.17034 106.58011 230.08819 106.58008 230.00977 z M 106.58203 230.24805 L 106.58203 230.50977 L 106.95117 230.50977 C 106.79005 230.44982 106.71624 230.36786 106.58203 230.24805 z M 1233.0371 231.2207 C 1233.0371 231.24678 1233.002 231.24685 1233.002 231.26953 C 1233.014 231.26152 1233.0363 231.26172 1233.0703 231.26172 C 1233.059 231.2432 1233.056 231.22826 1233.0371 231.2207 z M 117.89062 236.19141 C 117.90196 236.21484 117.96484 236.22265 117.96484 236.27734 L 118.01562 236.27734 C 117.99069 236.22152 117.96009 236.21616 117.89062 236.19141 z M 118.01562 236.27734 L 117.99023 236.30273 C 117.99024 236.33259 118.04297 236.30559 118.04297 236.33594 L 118.15039 236.33594 C 118.12393 236.33594 118.04483 236.30682 118.01758 236.27734 L 118.01562 236.27734 z M 111.09375 243.73438 C 110.93939 243.84662 110.69684 243.84567 110.51562 244.02539 C 111.14451 243.96552 111.7734 244.08526 112.4043 244.02539 C 112.09018 243.67352 111.46291 243.93649 111.09375 243.73438 z M 221.38867 243.96484 C 221.20748 243.96484 221.01862 244.02539 220.81055 244.02539 C 220.94476 244.11527 221.07279 244.19915 221.20703 244.28906 C 221.23387 244.19922 221.30809 244.08462 221.38867 243.96484 z M 1263.8027 244.08398 C 1265.3538 244.85822 1266.1623 245.26885 1266.9922 245.67969 C 1265.7586 245.76847 1264.5239 245.87401 1263.8027 244.08398 z M 661.57617 244.99023 C 661.5225 245.0501 661.52255 245.05078 661.49609 245.05078 L 661.57617 245.05078 L 661.57617 244.99023 z M 163.6875 247.88867 C 163.68259 247.91702 163.66973 247.94251 163.66406 247.9707 C 163.70998 247.95181 163.74429 247.92841 163.79297 247.91016 C 163.76651 247.88823 163.73815 247.90876 163.6875 247.88867 z M 472.99414 248.93555 C 472.96768 248.96578 472.91381 248.96875 472.89453 248.96875 C 472.96861 249.02869 472.99334 249.05784 473.07422 249.08789 C 473.07422 249.02802 472.99414 249.02738 472.99414 248.9375 L 472.99414 248.93555 z M 678.45703 249.19727 C 678.45703 249.2275 678.45657 249.25849 678.53711 249.31836 C 678.53711 249.25842 678.53661 249.22731 678.61719 249.19727 L 678.45703 249.19727 z M 415.61328 250.25391 L 415.61328 250.25781 C 415.61396 250.25652 415.61455 250.25504 415.61523 250.25391 L 415.61328 250.25391 z M 415.61328 250.25781 C 415.3884 250.67192 415.12243 251.05961 414.79297 251.40625 C 415.0598 251.257 415.32026 251.10728 415.58789 250.95898 C 415.58789 250.72069 415.61328 250.48862 415.61328 250.25781 z M 161.80664 250.60742 C 161.79455 250.61611 161.78591 250.62727 161.77344 250.63672 L 161.79883 250.63672 C 161.80185 250.62765 161.80362 250.61649 161.80664 250.60742 z M 535.41797 254.32031 C 535.31063 254.35055 535.26265 254.44044 535.20898 254.46289 C 535.41724 254.49313 535.65463 254.61328 535.83594 254.61328 C 535.83594 254.44105 535.47179 254.49255 535.41797 254.32031 z M 1271.4531 254.5332 C 1271.3307 254.54152 1271.2642 254.63893 1271.1504 254.64648 C 1271.1712 254.65404 1271.1979 254.65518 1271.2168 254.68164 C 1271.2841 254.61739 1271.3719 254.56917 1271.4531 254.53516 L 1271.4531 254.5332 z M 695.50391 254.87305 L 695.50391 254.875 C 695.57761 254.93487 695.57617 254.99531 695.57617 255.02539 C 695.62946 254.99515 695.71089 255.02449 695.79102 254.99414 C 695.71089 254.9342 695.63128 254.90309 695.50391 254.87305 z M 561.55859 254.875 C 561.60546 254.93498 561.73981 254.90445 561.82031 254.99414 C 561.76702 254.90453 561.65927 254.93487 561.63281 254.875 L 561.55859 254.875 z M 206.73242 255.28711 C 206.62535 255.39811 206.49954 255.39864 206.39258 255.60742 C 206.73285 255.48757 207.0205 255.61004 207.33594 255.49023 C 207.15528 255.37828 206.88897 255.37608 206.73438 255.28711 L 206.73242 255.28711 z M 1262.3008 256.26953 C 1262.2854 256.26953 1262.3022 256.27539 1262.2871 256.27539 C 1262.3113 256.27917 1262.3289 256.28724 1262.3516 256.29102 C 1262.3387 256.27968 1262.3235 256.26624 1262.3008 256.26953 z M 506.24414 259.5918 C 506.71074 259.57137 507.18493 259.57116 507.66992 259.5918 C 508.18723 259.61372 508.7167 259.65905 509.25781 259.73438 C 513.47274 260.31842 518.5323 260.29025 517.69336 264.14648 C 517.06917 267.07425 513.89602 267.36406 509.17773 266.25586 C 502.98963 264.75829 496.71854 269.97231 489.79883 267.30664 C 477.73805 267.92064 465.68055 268.56438 453.62109 269.14844 C 450.15992 269.35809 446.40974 268.94401 445.85938 266.16602 C 445.15196 262.5419 450.21248 262.91904 453.33203 262.04297 C 453.75152 261.90093 454.25142 261.89964 454.74805 261.92969 C 465.52356 262.22169 475.90753 265.40155 486.94141 263.94141 C 494.17936 264.50739 499.24518 259.89816 506.24414 259.5918 z M 186.59766 259.67383 L 186.59766 259.75586 C 186.64464 259.73356 186.72508 259.70384 186.75195 259.67383 L 186.59766 259.67383 z M 628.17383 260.46289 C 628.93892 261.39887 629.82318 261.86734 630.40039 263.35742 C 635.27976 264.81755 638.43023 262.56626 641.88672 261.07617 C 641.41689 260.99382 640.89073 261.04569 640.36719 260.93359 C 636.29996 260.87369 632.24105 260.52278 628.17383 260.46289 z M 298.12695 261.63086 C 298.12695 261.63086 298.09719 261.62973 298.04492 261.66016 C 298.10056 261.66015 298.10046 261.62992 298.12695 261.66016 L 298.12695 261.63086 z M 192.89062 261.66016 C 192.70941 261.66016 192.49371 261.65903 192.3125 261.68945 C 192.49369 261.80919 192.70942 261.95051 192.89062 262.07031 C 192.94297 261.92805 192.83829 261.86982 192.89062 261.66016 z M 269.62695 261.68945 C 269.65379 261.80923 269.70933 261.89879 269.76172 261.95117 C 269.91607 261.86882 270.15864 261.90114 270.33984 261.87109 C 270.20559 261.81115 270.18503 261.74936 270.05078 261.68945 L 269.62695 261.68945 z M 1264.6445 262.70508 C 1264.5829 262.78974 1264.4639 262.8524 1264.377 262.92383 L 1264.6445 262.92383 L 1264.6445 262.70508 z M 80.521484 263.35938 C 79.708712 263.53156 78.950704 263.77044 78.923828 264.0625 L 78.925781 264.0625 C 79.476802 263.85285 79.527522 263.70901 80.628906 263.5293 C 80.602072 263.47691 80.547639 263.38941 80.521484 263.35938 z M 1241.9883 267.18164 C 1241.9467 267.19676 1241.9 267.18826 1241.8535 267.21094 C 1241.8535 267.22984 1241.8352 267.23658 1241.8125 267.24414 L 1241.8652 267.24414 L 1241.8652 267.21094 C 1241.8996 267.20338 1241.9467 267.22606 1241.9883 267.21094 C 1241.9883 267.19582 1241.9996 267.1892 1241.9883 267.18164 z M 80.207031 267.42773 C 80.495598 267.80961 80.65655 268.18127 80.603516 268.62305 C 80.657185 268.65328 80.758163 268.65362 80.810547 268.68359 C 80.810547 268.27177 80.785156 267.86693 80.785156 267.45508 C 80.603966 267.45508 80.390194 267.45748 80.208984 267.42773 L 80.207031 267.42773 z M 1274.1289 268.85938 C 1274.1452 268.87291 1274.1597 268.85844 1274.1816 268.87305 C 1274.1816 268.85691 1274.2168 268.87449 1274.2168 268.85938 L 1274.1289 268.85938 z M 87.150391 269.14844 C 86.996035 269.26825 86.789043 269.20829 86.681641 269.32812 C 86.994397 269.35836 87.309561 269.41768 87.625 269.5 C 87.497479 269.35774 87.288534 269.32812 87.154297 269.14844 L 87.150391 269.14844 z M 169.47656 269.26953 C 169.47655 269.32947 169.42578 269.35663 169.42578 269.38672 L 169.55859 269.38672 C 169.53063 269.35648 169.50264 269.32944 169.47656 269.26953 z M 587.97266 269.5332 C 589.70678 269.57954 591.30576 270.09283 591.20508 271.69336 C 591.13138 272.48708 589.11095 273.53413 587.66797 274.00586 C 582.45305 275.66818 577.15917 276.25913 572.19922 273.45117 C 566.46088 275.40551 560.90206 275.90771 553.98242 271.8418 C 563.23773 272.33599 570.36684 268.45182 578.41406 271.25977 C 581.01139 270.67571 583.5807 269.85123 586.25195 269.61914 C 586.80229 269.55394 587.39462 269.51759 587.97266 269.5332 z M 618.10352 269.80469 C 619.51181 269.8421 621.50692 270.33876 624.24023 271.25977 C 629.72365 271.87376 636.03767 269.35987 640.60156 273.33594 C 641.4405 276.99001 636.8264 274.09753 635.625 275.26562 C 635.625 276.55353 635.65147 277.8423 635.67188 279.07031 L 635.43359 279.24219 C 638.45378 279.44435 643.50857 279.47366 641.70312 282.10938 C 640.26015 284.3033 635.36107 283.42767 632.65625 281.17383 C 628.11923 280.61972 624.00539 284.73762 619.65625 282.01953 C 617.16626 280.46955 618.86979 278.59586 621.43359 277.33789 C 619.39325 276.10989 617.31913 274.85299 615.25195 273.625 C 615.03803 270.95743 615.75635 269.74252 618.10352 269.80469 z M 505.87891 271.35352 L 505.88086 271.35352 C 511.11392 271.42964 516.72017 272.12288 522.99219 273.79688 C 508.68305 276.52246 497.74815 275.96914 486.8418 275.52734 C 486.83424 275.52092 486.82592 275.51462 486.81836 275.50781 C 481.37149 278.56155 476.84063 277.01465 471.68555 274.33008 C 477.16291 272.36826 482.1689 273.77513 486.91406 273.36328 C 493.03754 272.17973 499.1507 271.25562 505.87891 271.35352 z M 716.53125 272.04102 C 718.7679 272.07276 720.78484 273.15415 723.02734 274.50195 C 718.77889 275.72996 715.16355 275.40836 710.70703 274.24023 C 712.92104 272.62847 714.79161 272.01667 716.53125 272.04102 z M 735.83984 273.3125 C 736.04983 273.31008 736.26147 273.31776 736.47656 273.33203 C 738.19723 273.44621 740.09984 274.09556 742.45898 275.35352 C 737.52595 276.22959 734.51111 276.98922 731.57812 274.5332 C 733.01105 273.75354 734.36996 273.32943 735.83984 273.3125 z M 75.880859 273.42383 C 75.5661 273.42383 75.279341 273.45313 75.017578 273.45312 C 75.303499 273.59535 75.643545 273.71381 75.958984 273.82617 L 75.960938 273.82617 C 75.960938 273.65394 75.80028 273.59603 75.880859 273.42383 z M 1251.4336 274.05273 C 1251.4336 274.06048 1251.4141 274.05859 1251.4141 274.05859 C 1251.4141 274.08581 1251.4124 274.11222 1251.4121 274.13867 C 1251.4234 274.10995 1251.428 274.08492 1251.4355 274.05469 L 1251.4336 274.05273 z M 1251.4062 274.61328 C 1251.4063 274.6439 1251.4043 274.6768 1251.4043 274.70703 C 1251.4164 274.71459 1251.4381 274.70703 1251.457 274.70703 C 1251.4328 274.67642 1251.4214 274.64352 1251.4062 274.61328 z M 1251.4043 274.70703 C 1251.3903 274.73991 1251.3487 274.76223 1251.3223 274.77734 L 1251.4043 274.77734 L 1251.4043 274.70703 z M 832.82422 276.29102 C 832.82422 276.37333 832.87789 276.43165 832.82422 276.52148 L 832.87695 276.52148 L 832.87695 276.375 L 832.87695 276.29102 L 832.82422 276.29102 z M 1248.502 276.3457 C 1248.4882 276.3512 1248.4834 276.35411 1248.4766 276.35742 C 1248.4792 276.3572 1248.4824 276.35459 1248.4824 276.35742 C 1248.4824 276.35108 1248.4968 276.35034 1248.502 276.3457 z M 1248.4766 276.35742 C 1248.4721 276.35779 1248.4668 276.35742 1248.4668 276.35742 L 1248.4668 276.36133 C 1248.4709 276.35926 1248.474 276.35867 1248.4766 276.35742 z M 1248.4668 276.36133 C 1248.4555 276.37645 1248.4563 276.38477 1248.4336 276.38477 L 1248.457 276.38477 C 1248.457 276.37702 1248.4668 276.38451 1248.4668 276.37695 L 1248.4668 276.36133 z M 412.59375 276.8457 L 412.59375 277.56641 C 412.88137 277.30626 413.16877 277.10644 413.40234 276.8457 L 412.59375 276.8457 z M 577.45898 276.86133 C 580.41881 276.78551 583.39572 277.19618 586.33203 278.16211 C 588.35223 278.79857 590.42057 279.9137 590.29297 283.01367 C 587.35325 283.01367 584.96943 283.24648 582.6875 282.98438 C 577.78133 282.43026 572.07071 284.47209 568.19141 280.99023 C 567.64103 280.52597 568.02964 278.71814 568.6875 278.47852 C 571.55673 277.50133 574.49916 276.93716 577.45898 276.86133 z M 863.42188 276.92383 C 863.42188 276.92383 863.42097 276.95628 863.36719 276.98633 C 863.49758 276.99842 863.59957 277.02271 863.71484 277.03711 C 863.68461 277.02577 863.65354 277.01774 863.63086 276.98633 L 863.63086 276.92383 L 863.42188 276.92383 z M 864.06055 277.02344 L 864.06055 277.02539 C 863.98609 277.03144 863.91008 277.04713 863.83789 277.05469 C 863.95808 277.07207 864.09176 277.08119 864.20703 277.10742 L 864.20703 277.04688 C 864.16168 277.0242 864.11308 277.0189 864.06055 277.02344 z M 1250.2578 278.41602 C 1250.1561 278.48102 1250.0012 278.40727 1249.9199 278.49609 C 1250.0683 278.52255 1250.2441 278.48853 1250.4062 278.49609 C 1250.3579 278.4549 1250.2918 278.45532 1250.2578 278.41602 z M 1221.8984 278.48828 C 1221.9188 278.52021 1221.9401 278.55039 1221.9512 278.57617 C 1221.9856 278.55123 1222.0187 278.52816 1222.0527 278.49414 C 1222.0068 278.49414 1221.9515 278.48847 1221.8984 278.48828 z M 692.39844 278.78125 C 693.46665 278.82056 694.6153 278.97852 695.63086 278.97852 C 700.16796 278.9785 704.54408 279.94425 703.18164 283.47852 C 702.21518 285.91207 698.20098 285.32735 695.44922 283.6875 C 693.42902 282.89379 691.12171 282.39955 689.4707 281.34375 C 686.1417 279.23966 681.81218 287.10941 680.58398 281.34375 C 679.63763 277.04573 686.92605 280.20522 690.1543 279.03711 C 690.51486 278.8967 690.92522 278.82498 691.36523 278.79297 C 691.69519 278.76916 692.04237 278.7684 692.39844 278.78125 z M 652 278.85742 C 654.03278 278.79563 656.58302 279.25458 658.48242 279.17969 C 663.01948 278.97752 667.6574 278.45342 671.09375 281.52344 C 668.34195 284.33138 664.77048 283.18561 661.39453 282.69141 C 660.55559 282.98341 659.71738 283.42671 658.85156 283.53906 C 654.94542 283.89101 648.9115 285.78988 648.62305 281.66406 C 648.45183 279.50008 649.96722 278.91921 652 278.85742 z M 35.560547 279.00586 C 35.453155 279.06573 35.324515 279.01041 35.271484 279.07031 C 35.425867 279.15263 35.640553 279.20895 35.794922 279.29883 C 35.714369 279.17905 35.6411 279.09773 35.560547 279.00781 L 35.560547 279.00586 z M 533.00781 279.11719 C 538.06202 279.13495 543.06034 279.68151 547.97656 281.05273 C 536.43929 283.5387 524.74729 283.45714 513.00195 282.60352 C 510.88103 282.10932 508.78078 281.60624 504.43164 280.58789 C 512.21709 278.39394 518.11506 279.4121 523.85352 279.5918 C 526.92155 279.28569 529.97527 279.10691 533.00781 279.11719 z M 460.86719 279.44141 C 462.60263 279.5232 464.57192 280.24637 466.625 281.23242 C 468.66802 281.81648 469.82359 283.53802 468.17188 284.00977 C 464.05627 285.14792 459.33674 286.17354 455.64062 283.10352 C 456.79062 280.28995 458.63583 279.33625 460.86719 279.44141 z M 1236.7305 279.56641 C 1236.7305 279.57449 1236.7109 279.56666 1236.7109 279.57422 C 1236.7261 279.578 1236.7308 279.58997 1236.7422 279.59375 C 1236.7384 279.58619 1236.7325 279.57774 1236.7305 279.56641 z M 1157.2168 279.85742 L 1157.2168 279.85938 C 1157.2168 279.87374 1157.1973 279.87393 1157.1973 279.90039 C 1157.2196 279.89283 1157.2387 279.87279 1157.25 279.86523 C 1157.2387 279.86523 1157.2168 279.86498 1157.2168 279.85742 z M 1171.9785 280.2207 L 1171.9785 280.41406 C 1172.045 280.45639 1172.1234 280.49793 1172.1934 280.54102 C 1172.1076 280.44388 1172.0375 280.33749 1171.9785 280.2207 z M 1237.2031 280.29492 C 1237.2069 280.30928 1237.213 280.32082 1237.2168 280.33594 L 1237.2363 280.32812 C 1237.2217 280.31712 1237.2172 280.30593 1237.2031 280.29492 z M 320.02539 281.32031 C 323.59433 281.32787 326.38163 282.50204 328.51172 285.20703 C 323.37334 284.97489 317.00377 287.54455 312.73047 282.49023 C 315.46351 281.73211 317.88401 281.31537 320.02539 281.32031 z M 1225.6797 281.59961 C 1225.6241 281.62985 1225.5563 281.63005 1225.5098 281.66406 C 1225.5906 281.69007 1225.6788 281.663 1225.7461 281.68945 C 1225.7253 281.63994 1225.691 281.63892 1225.6797 281.59961 z M 1148.6953 282.79492 C 1150.4833 282.89077 1151.7865 284.14885 1153.6328 283.98633 C 1156.4554 284.38892 1159.138 283.52027 1161.9141 283.4375 C 1162.0365 283.4375 1162.1718 283.43373 1162.2734 283.47266 C 1163.0809 283.71421 1164.3744 283.60806 1164.1934 284.60938 C 1164.0588 285.37533 1163.0938 285.48947 1162.1914 285.43164 C 1159.091 285.27056 1156.0047 285.09365 1152.9043 284.91602 C 1151.1186 285.65918 1149.5206 284.22228 1147.916 284.62695 C 1146.7031 284.94077 1145.894 284.86 1145.7266 284.05273 C 1145.5109 282.98101 1146.8181 282.99688 1147.8965 282.83398 C 1148.1747 282.79241 1148.4398 282.7798 1148.6953 282.79492 z M 1230.793 282.81055 C 1230.8153 282.82566 1230.834 282.82668 1230.834 282.8418 L 1230.834 282.81055 L 1230.793 282.81055 z M 295.34961 282.82812 C 295.90723 282.8202 296.46619 282.81943 297.0293 282.83008 C 299.73221 282.88076 302.50041 283.17582 305.36133 284.00977 C 297.73225 285.88174 290.76007 285.00586 283.86523 285.00586 L 269.86328 285.00586 C 275.84065 282.37013 279.95868 283.27615 283.94336 283.24609 C 287.67104 283.328 291.44625 282.88373 295.34961 282.82812 z M 858.65039 282.89453 C 858.56989 282.98414 858.52148 282.98362 858.52148 283.01367 C 858.64885 283.18587 858.99151 283.13373 859.22656 283.24609 C 859.04515 283.10383 858.78475 283.10418 858.65039 282.89453 z M 198.24805 283.02539 C 213.42643 283.12823 241.12217 284.20858 247.08008 285.5 C 234.3911 287.75386 223.32825 286.75814 212.42188 286.99023 C 205.68408 289.85806 199.07606 286.89939 192.39062 286.69727 C 190.00465 286.69727 187.43663 286.69812 186.33594 285.00586 C 185.75874 284.03993 186.96468 283.5694 188.51172 283.27734 C 189.52098 283.06543 193.18859 282.99119 198.24805 283.02539 z M 1202.1719 283.35742 L 1202.1719 283.36523 C 1202.1719 283.35768 1202.1836 283.36523 1202.1836 283.36523 C 1202.1836 283.35715 1202.1719 283.35742 1202.1719 283.35742 z M 1229.207 283.36523 C 1229.229 283.41475 1229.2116 283.43732 1229.2305 283.47852 C 1229.277 283.43694 1229.3293 283.40643 1229.3633 283.36523 L 1229.209 283.36523 L 1229.207 283.36523 z M 1209.4023 283.37305 C 1209.3608 283.38023 1209.3485 283.4065 1209.3145 283.41406 C 1209.3613 283.42918 1209.4164 283.41508 1209.4629 283.44531 C 1209.4852 283.43095 1209.485 283.40706 1209.5039 283.37305 L 1209.4023 283.37305 z M 1258.1074 283.83398 C 1258.1074 283.8423 1258.0957 283.85818 1258.0957 283.88086 C 1258.3648 283.93037 1258.3791 283.97002 1258.5137 284.01953 C 1258.5137 283.93903 1258.3111 283.88161 1258.1074 283.83398 z M 1258.1875 284.94922 C 1258.1413 284.96467 1258.0955 284.96289 1258.041 284.96289 L 1258.041 285.30273 C 1258.055 285.2914 1258.0768 285.29246 1258.0957 285.27734 C 1258.0751 285.15654 1258.1075 285.05385 1258.1875 284.94922 z M 1256.4043 285.42969 C 1256.3767 285.47088 1256.3219 285.48804 1256.2754 285.52734 C 1256.3563 285.50089 1256.4441 285.49716 1256.5234 285.4707 C 1256.5113 285.43707 1256.4459 285.4637 1256.4043 285.42969 z M 1235.2402 285.46289 C 1235.2402 285.47045 1235.2285 285.49049 1235.2285 285.49805 L 1235.2402 285.49805 L 1235.2402 285.46289 z M 1149.332 286.03906 C 1150.8384 286.06851 1152.2344 286.30191 1153.6328 286.5918 C 1154.8595 286.70329 1156.1606 286.31696 1157.5547 286.84961 C 1156.2279 287.59898 1155.0609 288.0194 1153.6582 287.18945 C 1150.8476 287.30919 1148.0506 287.46437 1144.3652 286.71289 C 1146.2079 286.18531 1147.8256 286.00883 1149.332 286.03906 z M 1259.3086 286.60156 L 1259.3086 286.60352 C 1259.3237 286.65907 1259.2891 286.67699 1259.2891 286.72461 C 1259.3767 286.6853 1259.4441 286.6609 1259.5254 286.61328 C 1259.4581 286.61328 1259.3759 286.60156 1259.3086 286.60156 z M 1269.668 288.14258 C 1269.654 288.17357 1269.6336 288.19973 1269.5996 288.21484 C 1269.6533 288.20653 1269.7016 288.19065 1269.748 288.16797 C 1269.7223 288.14197 1269.6793 288.16903 1269.668 288.14258 z M 1141.3984 288.18555 C 1141.7873 288.17495 1142.1789 288.17824 1142.5703 288.19336 C 1143.0922 288.21339 1143.6168 288.25581 1144.1426 288.3125 C 1145.6246 288.25467 1147.1412 287.97317 1149.1426 288.57812 C 1148.0176 288.85875 1147.4777 289.00614 1146.9395 289.14258 L 1146.918 289.14258 C 1143.9055 289.37589 1140.9072 289.40026 1137.9414 288.71484 C 1139.0788 288.37446 1140.2318 288.21734 1141.3984 288.18555 z M 1160.5176 288.26562 C 1161.0071 288.29994 1161.4119 288.58556 1161.6855 289.2793 C 1160.7211 290.12557 1159.5085 289.82675 1158.4629 289.5293 C 1158.0264 289.39924 1158.3283 288.92468 1158.8477 288.76367 C 1159.4541 288.44895 1160.028 288.23161 1160.5176 288.26562 z M 1196.5391 288.78125 C 1197.0909 288.77974 1197.7134 288.89451 1198.416 289.10352 C 1197.317 290.50538 1195.6869 289.78719 1194.3516 289.85938 C 1194.8993 289.10853 1195.6194 288.78408 1196.5391 288.78125 z M 1202.4492 289.20117 C 1203.6089 289.17736 1204.7215 289.34078 1205.8301 289.31055 C 1206.8411 289.32718 1207.8993 289.06187 1209.4297 289.79688 L 1205.8301 289.79688 C 1204.0702 289.79688 1202.2713 290.04547 1200.3027 289.5293 C 1201.041 289.29648 1201.7534 289.21629 1202.4492 289.20117 z M 1227.8516 289.25781 C 1229.1525 289.24836 1230.0942 289.26992 1230.3535 289.32812 C 1230.7452 289.40863 1231.0714 289.53873 1230.916 289.79688 C 1230.6331 290.27173 1229.972 290.27148 1229.3457 290.27148 C 1227.6256 290.31759 1225.9473 291.14232 1224.1875 290.35156 C 1221.3907 290.28761 1218.5476 290.5546 1215.2988 289.94141 C 1216.8258 289.58364 1223.9486 289.28427 1227.8516 289.25781 z M 987.64062 290.26953 C 987.64818 290.28843 987.65455 290.29688 987.66211 290.29688 L 987.68945 290.29688 C 987.66148 290.28554 987.66148 290.26953 987.64258 290.26953 L 987.64062 290.26953 z "
       style="fill:#007fa0;fill-opacity:1;fill-rule:evenodd;stroke-width:0.94989;stroke-dasharray:7.59912, 7.59912;paint-order:stroke fill markers"
       id="rect6146" />
  </g>
</svg>
