<?xml version="1.0" encoding="UTF-8" standalone="no"?>
<svg
   xmlns:dc="http://purl.org/dc/elements/1.1/"
   xmlns:cc="http://creativecommons.org/ns#"
   xmlns:rdf="http://www.w3.org/1999/02/22-rdf-syntax-ns#"
   xmlns:svg="http://www.w3.org/2000/svg"
   xmlns="http://www.w3.org/2000/svg"
   xmlns:sodipodi="http://sodipodi.sourceforge.net/DTD/sodipodi-0.dtd"
   xmlns:inkscape="http://www.inkscape.org/namespaces/inkscape"
   sodipodi:docname="bb.svg"
   inkscape:version="1.0 (4035a4fb49, 2020-05-01)"
   id="svg8"
   version="1.1"
   viewBox="0 0 338.66666 79.375002"
   height="300"
   width="1280">
  <defs
     id="defs2">
    <inkscape:path-effect
       effect="bspline"
       id="path-effect867"
       is_visible="true"
       lpeversion="1"
       weight="33.333333"
       steps="2"
       helper_size="0"
       apply_no_weight="true"
       apply_with_weight="true"
       only_selected="false" />
    <inkscape:path-effect
       effect="bspline"
       id="path-effect853"
       is_visible="true"
       lpeversion="1"
       weight="33.333333"
       steps="2"
       helper_size="0"
       apply_no_weight="true"
       apply_with_weight="true"
       only_selected="false" />
    <inkscape:path-effect
       effect="bspline"
       id="path-effect849"
       is_visible="true"
       lpeversion="1"
       weight="33.333333"
       steps="2"
       helper_size="0"
       apply_no_weight="true"
       apply_with_weight="true"
       only_selected="false" />
    <inkscape:path-effect
       only_selected="false"
       apply_with_weight="true"
       apply_no_weight="true"
       helper_size="0"
       steps="2"
       weight="33.333333"
       lpeversion="1"
       is_visible="true"
       id="path-effect845"
       effect="bspline" />
  </defs>
  <sodipodi:namedview
     inkscape:window-maximized="1"
     inkscape:window-y="-8"
     inkscape:window-x="-8"
     inkscape:window-height="1017"
     inkscape:window-width="1920"
     units="px"
     showgrid="false"
     inkscape:document-rotation="0"
     inkscape:current-layer="layer1"
     inkscape:document-units="px"
     inkscape:cy="2.4030108"
     inkscape:cx="676.60484"
     inkscape:zoom="0.7"
     inkscape:pageshadow="2"
     inkscape:pageopacity="0.0"
     borderopacity="1.0"
     bordercolor="#666666"
     pagecolor="#ffffff"
     id="base" />
  <metadata
     id="metadata5">
    <rdf:RDF>
      <cc:Work
         rdf:about="">
        <dc:format>image/svg+xml</dc:format>
        <dc:type
           rdf:resource="http://purl.org/dc/dcmitype/StillImage" />
        <dc:title></dc:title>
      </cc:Work>
    </rdf:RDF>
  </metadata>
  <g
     id="layer1"
     inkscape:groupmode="layer"
     inkscape:label="Layer 1">
    <g
       transform="matrix(1.0023395,0,0,1.0100071,-0.39612185,-0.39712808)"
       id="g872">
      <path
         id="rect833"
         style="fill:#007fa0;fill-opacity:1;fill-rule:evenodd;stroke:none;stroke-width:0.262463;paint-order:stroke fill markers"
         d="M 0.1312315,0.1312315 V 79.243714 H 338.53538 V 0.1312315 Z M 282.3817,3.9067113 c 4.98903,0 10.33436,-4.77e-5 14.69988,0.1782841 4.36551,0.1783318 7.75057,0.5351066 12.20493,0.7131341 4.45437,0.1780276 9.97821,0.1776889 13.09638,0.5353685 3.11814,0.3576796 3.83095,1.0704804 4.98935,1.6040365 1.15837,0.5335561 2.76193,0.8902382 4.09691,6.5039955 1.33496,5.613759 2.40395,16.482702 3.11661,25.658899 0.71263,9.176195 1.069,16.659627 0.6232,22.00434 -0.4458,5.344716 -1.69328,8.552024 -2.67166,10.154936 -0.9784,1.602912 -1.69098,1.602793 -2.31563,1.78077 -0.62466,0.177976 -1.1593,0.534236 -3.29644,0.712618 -2.13712,0.178383 -5.87862,0.178413 -8.19587,0.445451 -2.31727,0.267038 -3.2081,0.801679 -8.73075,1.069185 -5.52262,0.267507 -15.67918,0.267647 -23.51897,5.17e-4 -7.83979,-0.26713 -13.36352,-0.801777 -16.65996,-1.069185 -3.29645,-0.267409 -4.36523,-0.267806 -10.15597,-0.713135 -5.79074,-0.445329 -16.30326,-1.335755 -22.54023,-1.425237 -6.23697,-0.08948 -8.19688,0.623157 -9.79992,0.979786 -1.60303,0.356629 -2.85062,0.356537 -8.107,0.623735 -5.25638,0.267197 -14.52177,0.80188 -24.76696,0.802018 -10.24519,1.37e-4 -21.47026,-0.534822 -27.52907,-0.624251 -6.05881,-0.08943 -6.9499,0.266997 -12.82919,0.44545 -5.87929,0.178453 -16.74823,0.178834 -27.52803,-0.08837 -10.77981,-0.2672 -21.47072,-0.801869 -30.914396,-0.802019 -9.443675,-1.49e-4 -17.639596,0.534317 -24.677563,0.712619 -7.037967,0.178301 -12.917749,2.47e-4 -19.064986,-0.08888 -6.147236,-0.08913 -12.561731,-0.08936 -20.224604,-0.07855 -7.662875,0.01081 -16.560846,0.03255 -21.332032,-1.213362 C 5.5785427,71.482952 4.9463044,68.966932 4.4110735,66.021783 3.8758426,63.076632 3.4349832,59.687357 3.3031308,50.863534 3.1712786,42.039712 3.3496125,27.785764 3.7956071,20.478827 4.2416018,13.17189 4.9538963,12.815586 5.3097268,12.193543 5.665557,11.571502 5.6658126,10.680388 6.2011451,10.055172 6.7364776,9.4299573 7.8057773,9.0734653 8.874367,8.5389859 9.9429566,8.0045091 11.012035,7.2921396 12.43849,6.935984 13.864946,6.5798284 15.646511,6.5796564 19.922788,6.4905342 24.199064,6.4014093 30.969749,6.2230087 36.76052,5.9556816 42.551292,5.6883572 47.362337,5.3322942 50.837179,5.4218636 c 3.474844,0.089569 5.613141,0.6240224 10.601939,0.8909023 4.988795,0.2668799 12.828299,0.2668667 18.084683,0.3560498 5.256382,0.089186 7.929041,0.2672186 10.869104,0.6237367 2.940061,0.3565154 6.147422,0.8910478 12.027175,1.158068 5.87975,0.2670201 14.43243,0.2671683 23.69777,0.2671683 h 26.54877 c 7.30537,0 11.93806,1.587e-4 14.60996,-0.1782842 2.6719,-0.1784429 3.38465,-0.5352309 6.05803,-0.8914183 2.67338,-0.35619 7.30582,-0.7123006 12.47314,-0.8903864 5.16732,-0.1780857 10.86924,-0.1782842 19.9564,-0.1782842 h 30.11238 c 8.55262,0 13.18543,1.932e-4 17.90692,-0.4454498 4.72148,-0.445643 9.53237,-1.336548 14.25442,-1.7818021 4.72204,-0.4452567 9.35482,-0.4454524 14.34383,-0.4454524 z" />
      <path
         style="fill:none;stroke:#1e466d;stroke-width:0.264583px;stroke-linecap:butt;stroke-linejoin:miter;stroke-opacity:1"
         d="M 5.3100824,12.193147 C 5.6659126,11.571106 5.6659126,10.680207 6.2012453,10.054991 6.736578,9.4297749 7.8056563,9.0734156 8.8742459,8.5389375 9.9428356,8.0044595 11.011914,7.2917408 12.438369,6.935585 13.864824,6.5794292 15.64662,6.5794292 19.922897,6.4903055 24.199174,6.4011818 30.970002,6.2230021 36.760773,5.9556762 42.551544,5.6883503 47.362394,5.3319911 50.837236,5.4215602 c 3.474843,0.089569 5.612999,0.6241082 10.601796,0.8909886 4.988798,0.2668804 12.828704,0.2668804 18.085087,0.3560639 5.256383,0.089184 7.929076,0.2673631 10.869138,0.6238791 2.940063,0.356516 6.147297,0.8910551 12.027043,1.1580744 5.87975,0.2670193 14.43238,0.2670193 23.69772,0.2670193 9.26535,0 19.24341,0 26.54877,0 7.30537,0 11.93804,0 14.60994,-0.1784431 2.6719,-0.1784432 3.38462,-0.5348026 6.058,-0.8909917 2.67338,-0.3561892 7.30606,-0.7125492 12.47338,-0.8906354 5.16732,-0.1780861 10.86907,-0.1780861 19.95623,-0.1780861 9.08716,0 21.55974,0 30.11237,0 8.55262,0 13.18529,0 17.90677,-0.4456429 4.72149,-0.4456428 9.53234,-1.3365418 14.25438,-1.781797 4.72205,-0.4452552 9.35472,-0.4452552 14.34375,-0.4452552 4.98902,0 10.33442,0 14.69994,0.1783323 4.36553,0.1783323 7.75095,0.5346919 12.20531,0.7127188 4.45437,0.1780269 9.97794,0.1780269 13.09608,0.535706 3.11815,0.3576792 3.83087,1.0704095 4.98926,1.6039647 1.15838,0.5335552 2.76199,0.8899125 4.09694,6.5036711 1.33496,5.613758 2.40404,16.482719 3.11668,25.658916 0.71264,9.176196 1.069,16.659742 0.62321,22.004457 -0.44579,5.344714 -1.69304,8.551946 -2.67144,10.154858 -0.9784,1.602913 -1.69111,1.602913 -2.31576,1.780889 -0.62466,0.177976 -1.15919,0.534337 -3.29633,0.712719 -2.13713,0.178383 -5.87892,0.178383 -8.19619,0.445421 -2.31727,0.267038 -3.20814,0.801565 -8.73078,1.069071 -5.52264,0.267507 -15.67889,0.267507 -23.51868,3.77e-4 -7.83979,-0.26713 -13.36337,-0.801669 -16.65981,-1.069078 -3.29644,-0.267408 -4.36551,-0.267408 -10.15625,-0.712737 -5.79074,-0.445329 -16.30333,-1.336226 -22.5403,-1.425708 -6.23697,-0.08948 -8.19695,0.623238 -9.79998,0.979868 -1.60304,0.356629 -2.8503,0.356629 -8.10668,0.623827 -5.25638,0.267198 -14.52173,0.801737 -24.76692,0.801875 -10.24519,1.38e-4 -21.47051,-0.534402 -27.52932,-0.623832 -6.05881,-0.08943 -6.94971,0.266931 -12.829,0.445384 -5.87929,0.178453 -16.74825,0.178453 -27.52806,-0.08875 -10.7798,-0.2672 -21.47058,-0.801739 -30.914261,-0.801888 -9.443677,-1.5e-4 -17.639942,0.534389 -24.67791,0.71269 -7.037967,0.178301 -12.917897,1.22e-4 -19.065134,-0.08901 -6.147237,-0.08913 -12.561706,-0.08913 -20.224581,-0.07832 -7.662875,0.01081 -16.560403,0.03241 -21.331589,-1.213504 C 5.5788681,71.482745 4.9465035,68.966869 4.4112727,66.02172 3.8760418,63.07657 3.435069,59.687442 3.3032166,50.86362 3.1713643,42.039799 3.3495439,27.785422 3.7955386,20.478485 4.2415333,13.171548 4.9542523,12.815188 5.3100824,12.193147 Z"
         id="path843"
         inkscape:path-effect="#path-effect845"
         inkscape:original-d="m 5.6659126,12.459358 c 0.00265,-0.888252 0.00265,-1.779151 0,-2.6726947 1.0717239,-0.353713 2.1408019,-0.710073 3.2072341,-1.0690778 1.0717242,-0.7100731 2.1408023,-1.4227918 3.2072343,-2.1381563 1.784443,0.00265 3.566239,0.00265 5.345391,0 6.773473,-0.1755339 13.544301,-0.3537135 20.312483,-0.534539 4.813498,-0.3537136 9.624348,-0.7100729 14.432555,-1.0690781 2.140802,0.5371849 4.278958,1.0717239 6.414468,1.6036171 7.842552,0.00265 15.682458,0.00265 23.519717,0 2.675343,0.1808255 5.348036,0.3590052 8.018087,0.534539 3.20988,0.5371849 6.417114,1.0717239 9.621703,1.6036173 8.555265,0.00265 17.107895,0.00265 25.657875,0 9.98071,0.00265 19.95877,0.00265 29.93418,0 4.63532,0.00265 9.26799,0.00265 13.89802,0 0.71536,-0.3537137 1.42808,-0.7100731 2.13816,-1.0690783 4.63531,-0.3537135 9.26799,-0.7100728 13.89801,-1.069078 5.7044,0.00265 11.40615,0.00265 17.10525,0 12.47522,0.00265 24.9478,0.00265 37.41774,0 4.63531,0.00265 9.26798,0.00265 13.89801,0 4.8135,-0.8882526 9.62435,-1.7791509 14.43254,-2.6726951 4.63534,0.00265 9.26801,0.00265 13.89804,0 5.34802,0.00265 10.69342,0.00265 16.03615,0 3.38807,0.3590051 6.77349,0.7153645 10.15625,1.069078 5.52622,0.00265 11.04979,0.00265 16.57072,0 0.71535,0.7153645 1.42809,1.4280832 2.13815,2.1381561 1.60626,0.3590052 3.20987,0.7153645 4.81086,1.0690781 1.07173,10.8716057 2.1408,21.7405677 3.20723,32.6068807 0.35901,7.486192 0.71535,14.969739 1.06908,22.450642 -1.24463,3.20988 -2.49188,6.417114 -3.74177,9.621702 -0.71009,0.0026 -1.4228,0.0026 -2.13818,0 -0.53189,0.359006 -1.06643,0.715365 -1.60361,1.069078 -3.73912,0.0026 -7.48091,0.0026 -11.22532,0 -0.88826,0.537184 -1.77913,1.071724 -2.67269,1.603616 -10.15359,0.0026 -20.30984,0.0026 -30.46872,0 -5.52093,-0.531892 -11.04451,-1.066432 -16.57073,-1.603616 -1.06643,0.0026 -2.1355,0.0026 -3.20722,0 -10.50996,-0.888253 -21.02255,-1.779151 -31.5378,-2.672696 -1.95733,0.715364 -3.91731,1.428083 -5.87993,2.138156 -1.24461,0.0026 -2.49187,0.0026 -3.74178,0 -9.26269,0.537186 -18.52804,1.071724 -27.79603,1.603618 -11.22267,-0.531894 -22.44799,-1.066432 -33.67596,-1.603618 -0.88825,0.359005 -1.77915,0.715365 -2.67269,1.069078 -10.86632,0.0026 -21.73528,0.0026 -32.60688,0 C 115.7836,73.933995 105.09282,73.399455 94.399394,72.862271 86.205775,73.399455 78.00951,73.933995 69.810599,74.465887 63.933314,74.290355 58.053384,74.112174 52.17081,73.931349 c -6.411822,0.0026 -12.826291,0.0026 -19.243405,0 -8.908635,0.02189 -17.806163,0.04349 -26.7167811,0.06485 C 5.5790543,71.482698 4.9466898,68.966822 4.316134,66.45893 3.8762681,63.076541 3.4352952,59.687413 2.9932173,56.29156 3.1740428,42.039832 3.3522225,27.785455 3.5277562,13.528436 4.243121,13.174723 4.9558397,12.818363 5.6659126,12.459358 Z"
         sodipodi:nodetypes="cccccccccccccccccccccccccccccccccccccccccccccccccccc" />
      <path
         sodipodi:nodetypes="cccccccccccccccccccccccccccccccccccccccccccccccccccc"
         inkscape:original-d="m 8.7111791,14.851726 c 0.00258,-0.810212 0.00258,-1.62284 0,-2.43788 1.0517851,-0.322638 2.1009749,-0.647688 3.1475679,-0.975153 1.051786,-0.647689 2.100975,-1.29779 3.147567,-1.9503057 1.751245,0.0024 3.499894,0.0024 5.245949,0 6.647459,-0.160111 13.292326,-0.322636 19.934594,-0.487575 4.723948,-0.3226381 9.445299,-0.6476887 14.164056,-0.975153 2.100975,0.4899896 4.199354,0.977565 6.295135,1.462728 7.696652,0.0024 15.390707,0.0024 23.082164,0 2.625571,0.164939 5.248541,0.327465 7.86892,0.487577 3.150165,0.4899897 6.297732,0.9775667 9.442708,1.4627287 8.39611,0.0024 16.78963,0.0024 25.18054,0 9.79503,0.0024 19.58747,0.0024 29.37729,0 4.54909,0.0024 9.09558,0.0024 13.63947,0 0.70206,-0.322637 1.40151,-0.647689 2.0984,-0.975153 4.54907,-0.322637 9.09555,-0.6476877 13.63945,-0.9751527 5.59827,0.0024 11.19394,0.0024 16.78702,0 12.24314,0.0024 24.48369,0.0024 36.72163,0 4.54908,0.0024 9.09556,0.0024 13.63946,0 4.72396,-0.8102131 9.4453,-1.62284 14.16404,-2.4378805 4.5491,0.00242 9.09559,0.00242 13.63948,0 5.24854,0.00242 10.49448,0.00242 15.73783,0 3.32503,0.3274642 6.64746,0.6525151 9.96731,0.9751525 5.4234,0.00242 10.8442,0.00242 16.26243,0 0.70205,0.6525149 1.40152,1.302617 2.09837,1.950305 1.57639,0.3274637 3.15015,0.6525147 4.72137,0.9751527 1.05179,9.916463 2.10097,19.830516 3.14756,29.742152 0.35232,6.82848 0.70205,13.654548 1.04919,20.478205 -1.22148,2.927871 -2.44552,5.853328 -3.67216,8.776372 -0.69688,0.0024 -1.39633,0.0024 -2.0984,0 -0.52199,0.327465 -1.04659,0.652515 -1.57378,0.975151 -3.66956,0.0024 -7.34174,0.0024 -11.01648,0 -0.87173,0.48999 -1.74604,0.977567 -2.62298,1.462729 -9.96469,0.0024 -19.932,0.0024 -29.90188,0 -5.41822,-0.485162 -10.83904,-0.972739 -16.26246,-1.462729 -1.04659,0.0024 -2.09576,0.0024 -3.14754,0 -10.31444,-0.810213 -20.63147,-1.62284 -30.95109,-2.437881 -1.92091,0.652515 -3.84442,1.302617 -5.77054,1.950305 -1.22145,0.0024 -2.44552,0.0024 -3.67216,0 -9.09038,0.489991 -18.18336,0.977566 -27.27894,1.462729 -11.01388,-0.485163 -22.03036,-0.972738 -33.04945,-1.462729 -0.87172,0.327465 -1.74606,0.652516 -2.62297,0.975152 -10.66416,0.0024 -21.33092,0.0024 -32.00028,0 -10.4893,-0.485161 -20.98119,-0.972738 -31.475681,-1.462727 -8.041187,0.489989 -16.084971,0.977566 -24.131351,1.462727 -5.767947,-0.160111 -11.538489,-0.322636 -17.311625,-0.487576 -6.292539,0.0024 -12.587675,0.0024 -18.885407,0 -8.742901,0.01996 -17.474901,0.03967 -26.2197498,0.05915 C 8.6259362,68.689478 8.0053361,66.394637 7.3865115,64.107081 6.9548281,61.021857 6.5220593,57.930486 6.0882057,54.832981 6.2656674,41.833361 6.4405321,28.831326 6.6127998,15.826879 7.3148566,15.504242 8.0143163,15.17919 8.7111791,14.851726 Z"
         inkscape:path-effect="#path-effect849"
         id="path847"
         d="m 8.362056,14.608864 c 0.3491231,-0.56735 0.3491231,-1.379978 0.8745609,-1.950285 0.5254379,-0.570306 1.5746271,-0.895358 2.6233711,-1.382919 1.048744,-0.487562 2.097933,-1.137664 3.497752,-1.4624683 1.399819,-0.3248044 3.148468,-0.3248044 7.345195,-0.4060979 4.196726,-0.081294 10.841593,-0.2438185 16.524643,-0.4876588 5.683049,-0.2438402 10.4044,-0.5688911 13.814555,-0.4871974 3.410154,0.081694 5.508533,0.5692699 10.40455,0.8127098 4.896017,0.2434399 12.590072,0.2434399 17.748656,0.3247875 5.158583,0.081348 7.781553,0.2438731 10.666908,0.5690641 2.885354,0.325191 6.032921,0.812767 11.803313,1.05633 5.77039,0.243564 14.16391,0.243564 23.25688,0.243564 9.09297,0 18.88541,0 26.05486,0 7.16946,0 11.71595,0 14.33823,-0.162807 2.62229,-0.162806 3.32174,-0.487851 5.94532,-0.81271 2.62358,-0.324859 7.17006,-0.6499093 12.24123,-0.812349 5.07118,-0.1624397 10.66685,-0.1624397 19.58496,-0.1624397 8.91811,0 21.15866,0 29.55217,0 8.39351,0 12.93999,0 17.57368,-0.4064971 4.63369,-0.4064971 9.35503,-1.2191229 13.98919,-1.6252531 4.63416,-0.4061303 9.18065,-0.4061303 14.07686,-0.4061303 4.89622,0 10.14216,0 14.42645,0.1626625 4.2843,0.1626625 7.60673,0.4877127 11.97825,0.6501014 4.37152,0.1623886 9.79232,0.1623886 12.85246,0.4886453 3.06014,0.3262566 3.75961,0.9763652 4.89641,1.4630391 1.13681,0.4866739 2.71057,0.8117189 4.02073,5.9322949 1.31016,5.120576 2.35934,15.034628 3.05873,23.404627 0.69938,8.369998 1.04911,15.196066 0.61165,20.071129 -0.43747,4.875063 -1.66152,7.800515 -2.62175,9.262678 -0.96023,1.462162 -1.65968,1.462162 -2.27261,1.624439 -0.61293,0.162278 -1.13753,0.487331 -3.23501,0.650102 -2.09747,0.162772 -5.76965,0.162772 -8.04371,0.406294 -2.27405,0.243522 -3.14837,0.731092 -8.56836,0.975149 -5.41999,0.244058 -15.3873,0.244058 -23.08125,3.96e-4 -7.69396,-0.243663 -13.11478,-0.731239 -16.34988,-0.975153 -3.2351,-0.243914 -4.28427,-0.243914 -9.96729,-0.650119 -5.68303,-0.406204 -16.00006,-1.218831 -22.12091,-1.300474 -6.12085,-0.08164 -8.04436,0.568458 -9.61764,0.893781 -1.57329,0.325322 -2.79736,0.325322 -7.95594,0.569044 -5.15858,0.243722 -14.25156,0.731299 -24.30617,0.731424 -10.05461,1.26e-4 -21.07109,-0.48745 -27.0171,-0.569051 -5.946,-0.0816 -6.82034,0.243455 -12.59033,0.406256 -5.76998,0.162801 -16.43674,0.162801 -27.01602,-0.08092 C 116.78038,70.923127 106.28849,70.435551 97.020517,70.435414 87.752547,70.435278 79.708763,70.922853 72.80171,71.08549 65.894657,71.248127 60.124115,71.085601 54.091244,71.0043 48.058374,70.923 41.763238,70.923 34.242921,70.93286 26.722604,70.94276 17.990604,70.96242 13.30818,69.825974 8.625756,68.689527 8.0051553,66.394686 7.4798813,63.708287 6.9546072,61.021888 6.521838,57.930517 6.3924382,49.881921 6.2630384,41.833326 6.4379031,28.831291 6.8756879,22.166277 7.3134728,15.501264 8.0129329,15.176213 8.362056,14.608864 Z"
         style="fill:none;stroke:#e5ef00;stroke-width:0.250296;stroke-linecap:butt;stroke-linejoin:miter;stroke-miterlimit:4;stroke-dasharray:2.00237, 2.00237;stroke-dashoffset:0;stroke-opacity:1" />
    </g>
  </g>
</svg>
